<?xml version="1.0" encoding="utf-8"?>
<!-- Generator: Adobe Illustrator 24.1.2, SVG Export Plug-In . SVG Version: 6.00 Build 0)  -->
<svg version="1.1" id="Layer_1" xmlns="http://www.w3.org/2000/svg" xmlns:xlink="http://www.w3.org/1999/xlink" x="0px" y="0px"
	 viewBox="0 0 841.9 595.3" style="enable-background:new 0 0 841.9 595.3;" xml:space="preserve">
<style type="text/css">
	.st0{fill:url(#SVGID_1_);}
	.st1{fill:none;}
	.st2{fill:#349937;}
	.st3{font-family:'GreatVibes-Regular';}
	.st4{font-size:72px;}
	.st5{fill:none;stroke:#349937;stroke-miterlimit:10;}
	.st6{stroke:#000000;stroke-miterlimit:10;}
	.st7{fill:#349937;stroke:#349937;stroke-miterlimit:10;}
	.st8{fill:url(#SVGID_2_);}
	.st9{fill-rule:evenodd;clip-rule:evenodd;fill:#0C9D39;}
	.st10{fill:#0C9D39;}
	.st11{fill-rule:evenodd;clip-rule:evenodd;fill:url(#rect12_4_);}
	.st12{fill:url(#SVGID_3_);}
	.st13{fill:url(#SVGID_4_);}
	.st14{fill-rule:evenodd;clip-rule:evenodd;fill:#0AA239;}
	.st15{fill-rule:evenodd;clip-rule:evenodd;fill:url(#SVGID_5_);}
	.st16{opacity:0.57;fill-rule:evenodd;clip-rule:evenodd;fill:url(#SVGID_6_);enable-background:new    ;}
	.st17{opacity:0.74;fill-rule:evenodd;clip-rule:evenodd;fill:url(#SVGID_7_);enable-background:new    ;}
	.st18{fill-rule:evenodd;clip-rule:evenodd;fill:url(#SVGID_8_);}
	.st19{fill-rule:evenodd;clip-rule:evenodd;fill:url(#SVGID_9_);}
	.st20{fill-rule:evenodd;clip-rule:evenodd;fill:url(#SVGID_10_);}
	.st21{fill-rule:evenodd;clip-rule:evenodd;fill:url(#SVGID_11_);}
	.st22{fill-rule:evenodd;clip-rule:evenodd;fill:url(#SVGID_12_);}
	.st23{opacity:0.5;}
	.st24{opacity:0.44;}
	.st25{fill:url(#SVGID_13_);}
	.st26{fill:url(#SVGID_14_);}
	.st27{fill:url(#SVGID_15_);}
	.st28{fill:url(#SVGID_16_);}
	.st29{fill:url(#SVGID_17_);}
	.st30{fill:url(#SVGID_18_);}
	.st31{fill:url(#SVGID_19_);}
	.st32{display:none;}
	.st33{display:inline;fill:#CECC69;}
	.st34{fill:#349937;stroke:#349937;stroke-width:3.2858;stroke-miterlimit:10;}
	.st35{font-family:'Impact';}
	.st36{font-size:60px;}
	.st37{display:inline;fill:#E28F3A;}
	.st38{display:inline;fill:none;}
	.st39{opacity:0.74;fill:url(#XMLID_6_);enable-background:new    ;}
	.st40{fill:#0AA239;}
	.st41{fill:url(#XMLID_16_);}
	.st42{opacity:0.57;fill:url(#XMLID_28_);enable-background:new    ;}
	.st43{fill:url(#XMLID_37_);}
	.st44{fill:url(#XMLID_255_);}
	.st45{opacity:0.74;fill:url(#XMLID_256_);enable-background:new    ;}
	.st46{fill:url(#XMLID_259_);}
	.st47{opacity:0.57;fill:url(#XMLID_260_);enable-background:new    ;}
	.st48{fill:url(#XMLID_261_);}
	.st49{fill:url(#XMLID_262_);}
	.st50{opacity:0.69;fill:url(#XMLID_263_);enable-background:new    ;}
	.st51{opacity:0.62;fill:#E5E584;enable-background:new    ;}
	.st52{fill:#395C36;}
	.st53{fill:#2F562F;}
	.st54{fill:#386137;}
	.st55{opacity:0.3;fill:url(#XMLID_264_);enable-background:new    ;}
	.st56{fill:#284928;}
	.st57{fill:#3F673B;}
	.st58{opacity:0.26;fill:url(#XMLID_265_);enable-background:new    ;}
	.st59{opacity:0.74;fill:url(#XMLID_266_);enable-background:new    ;}
	.st60{fill:url(#XMLID_267_);}
	.st61{opacity:0.57;fill:url(#XMLID_268_);enable-background:new    ;}
	.st62{fill:url(#XMLID_269_);}
	.st63{fill:url(#XMLID_270_);}
	.st64{fill:none;stroke:#FFFFFF;stroke-width:5;stroke-miterlimit:10;}
	.st65{fill:#FFFFFF;}
	.st66{display:inline;fill:#349937;}
	.st67{fill:none;stroke:#FFFFFF;stroke-width:3;stroke-miterlimit:10;}
	.st68{fill:none;stroke:#FFFFFF;stroke-width:8;stroke-miterlimit:10;}
	.st69{fill:none;stroke:#FFFFFF;stroke-width:2;stroke-miterlimit:10;}
	.st70{fill:#FEFEFB;}
	.st71{opacity:0.7;fill:#FEFEFB;enable-background:new    ;}
	.st72{opacity:0.5;fill:#FEFEFB;enable-background:new    ;}
	.st73{display:inline;fill:none;stroke:#FEFEFD;stroke-width:6;stroke-miterlimit:10;}
	.st74{fill:none;stroke:url(#SVGID_20_);stroke-width:5;stroke-miterlimit:10;}
	.st75{fill:none;stroke:#FFFFFF;stroke-width:5;stroke-linecap:round;stroke-miterlimit:10;}
	.st76{opacity:8.000000e-02;}
	.st77{fill:none;stroke:#255F2A;stroke-width:5;stroke-miterlimit:10;}
	.st78{fill:none;stroke:url(#SVGID_21_);stroke-width:5;stroke-miterlimit:10;}
	.st79{fill:none;stroke:url(#SVGID_22_);stroke-width:5;stroke-linecap:round;stroke-miterlimit:10;}
	.st80{fill:none;stroke:#255F2A;stroke-width:5;stroke-linecap:round;stroke-miterlimit:10;}
	.st81{fill:none;stroke:url(#SVGID_23_);stroke-width:5;stroke-linecap:round;stroke-miterlimit:10;}
	.st82{font-family:'ArialMT';}
	.st83{font-size:35px;}
	.st84{fill:url(#SVGID_24_);}
	.st85{fill:url(#SVGID_25_);}
	.st86{fill:url(#SVGID_26_);}
	.st87{fill:url(#SVGID_27_);}
	.st88{fill:url(#SVGID_28_);}
	.st89{fill:url(#SVGID_29_);}
	.st90{fill:url(#SVGID_30_);}
	.st91{fill:url(#SVGID_31_);}
	.st92{fill:url(#SVGID_32_);}
	.st93{fill:none;stroke:url(#SVGID_33_);stroke-width:0.25;stroke-miterlimit:10;}
	.st94{fill:none;stroke:url(#SVGID_34_);stroke-width:0.25;stroke-miterlimit:10;}
	.st95{fill:none;stroke:url(#SVGID_35_);stroke-width:0.25;stroke-miterlimit:10;}
	.st96{fill:none;stroke:url(#SVGID_36_);stroke-width:0.25;stroke-miterlimit:10;}
	.st97{fill:none;stroke:url(#SVGID_37_);stroke-width:0.25;stroke-miterlimit:10;}
	.st98{fill:none;stroke:url(#SVGID_38_);stroke-width:0.25;stroke-miterlimit:10;}
	.st99{fill:none;stroke:url(#SVGID_39_);stroke-width:0.25;stroke-miterlimit:10;}
	.st100{fill:none;stroke:url(#SVGID_40_);stroke-width:0.25;stroke-miterlimit:10;}
	.st101{fill:none;stroke:url(#SVGID_41_);stroke-width:0.25;stroke-miterlimit:10;}
	.st102{display:inline;fill:none;stroke:#000000;stroke-miterlimit:10;}
	.st103{display:inline;stroke:#000000;stroke-miterlimit:10;}
</style>
<g id="Snapsnare_font1">
	
		<linearGradient id="SVGID_1_" gradientUnits="userSpaceOnUse" x1="483.248" y1="489.0448" x2="592.0306" y2="398.2622" gradientTransform="matrix(1 0 0 1 0 -170)">
		<stop  offset="7.020000e-02" style="stop-color:#FFFFFF;stop-opacity:0"/>
		<stop  offset="1" style="stop-color:#79896F;stop-opacity:0.2"/>
	</linearGradient>
	<polygon class="st0" points="542.8,169.3 648.6,281.1 536.8,372.8 443.3,260 	"/>
	<g>
		
			<image style="overflow:visible;enable-background:new    ;" width="817" height="817" xlink:href="87B928EA.png"  transform="matrix(0.2385 0 0 0.2385 497.7141 127.92)">
		</image>
	</g>
	<polygon id="XMLID_2_" class="st1" points="339.2,100.7 69,102.9 69,31.9 339.2,29.7 	"/>
	<text transform="matrix(1 0 0 1 68.9595 74.7803)" class="st2 st3 st4">Sn</text>
	<text transform="matrix(1 0 0 1 68.9595 74.7803)" class="st5 st3 st4">Sn</text>
	<text transform="matrix(1 0 0 1 159.2495 74.7803)" class="st2 st3 st4">ap</text>
	<text transform="matrix(1 0 0 1 159.2495 74.7803)" class="st5 st3 st4">ap</text>
	<text transform="matrix(1 0 0 1 209.2095 74.7803)" class="st2 st3 st4">sn</text>
	<text transform="matrix(1 0 0 1 209.2095 74.7803)" class="st5 st3 st4">sn</text>
	<text transform="matrix(1 0 0 1 251.9095 74.7803)" class="st2 st3 st4">ar</text>
	<text transform="matrix(1 0 0 1 251.9095 74.7803)" class="st5 st3 st4">ar</text>
	<text transform="matrix(1 0 0 1 296.1195 74.7803)" class="st2 st3 st4">e</text>
	<text transform="matrix(1 0 0 1 296.1195 74.7803)" class="st5 st3 st4">e</text>
	
		<linearGradient id="SVGID_2_" gradientUnits="userSpaceOnUse" x1="556.7507" y1="457.8593" x2="602.142" y2="382.7289" gradientTransform="matrix(1 0 0 1 0 -170)">
		<stop  offset="0" style="stop-color:#158C38"/>
		<stop  offset="0.8056" style="stop-color:#58B252"/>
	</linearGradient>
	<path class="st8" d="M637.7,284.6h-86.4c-8.9,0-16-7.2-16-16v-86.4c0-8.9,7.2-16,16-16h84.6c9.8,0,17.8,8,17.8,17.8v84.6
		C653.7,277.4,646.5,284.6,637.7,284.6z"/>
	<path id="rect12" class="st9" d="M39.5,321.8h336.1c5.5,0,10,4.3,10,9.6v38.5c0,5.3-4.5,9.6-10,9.6H39.5c-5.5,0-10-4.3-10-9.6
		v-38.5C29.4,326.1,33.9,321.8,39.5,321.8z"/>
	<path class="st10" d="M637.7,584.8h-86.4c-8.9,0-16-7.2-16-16v-86.4c0-8.9,7.2-16,16-16h84.6c9.8,0,17.8,8,17.8,17.8v84.6
		C653.7,577.6,646.5,584.8,637.7,584.8z"/>
	
		<linearGradient id="rect12_4_" gradientUnits="userSpaceOnUse" x1="28.4984" y1="607.25" x2="384.6" y2="607.25" gradientTransform="matrix(1 0 0 1 0 -170)">
		<stop  offset="0" style="stop-color:#158C38"/>
		<stop  offset="0.8056" style="stop-color:#58B252"/>
	</linearGradient>
	<path id="rect12_1_" class="st11" d="M38.5,408.4h336.1c5.5,0,10,4.3,10,9.6v38.5c0,5.3-4.5,9.6-10,9.6H38.5c-5.5,0-10-4.3-10-9.6
		V418C28.4,412.7,32.9,408.4,38.5,408.4z"/>
	<g>
		
			<image style="overflow:visible;enable-background:new    ;" width="763" height="763" xlink:href="87B928EE.png"  transform="matrix(0.2391 0 0 0.2391 503.28 134.16)">
		</image>
	</g>
	<g>
		
			<image style="overflow:visible;enable-background:new    ;" width="567" height="463" xlink:href="87B928E9.png"  transform="matrix(0.2379 0 0 0.2379 551.8679 132)">
		</image>
	</g>
	
		<linearGradient id="SVGID_3_" gradientUnits="userSpaceOnUse" x1="491.8" y1="365.2609" x2="491.8" y2="332.6522" gradientTransform="matrix(1 0 0 1 0 -170)">
		<stop  offset="7.020000e-02" style="stop-color:#FFFFFF"/>
		<stop  offset="1" style="stop-color:#79896F"/>
	</linearGradient>
	<rect x="477.5" y="165" class="st12" width="28.6" height="28.6"/>
</g>
<g id="longfont_extra">
	<g>
		<path class="st14" d="M88.5,332.1c55.2-6.8,111.8-2,166.8,3.5c28.2,2.8,56,8.9,84,12.8c15.2,2.1,32.3,4.6,46.1,12.3v-29
			c0-5.3-4.5-9.6-10-9.6h-336c-5.5,0-10,4.3-10,9.6v8.3C48.4,334.8,69.1,334.5,88.5,332.1z"/>
		
			<linearGradient id="SVGID_4_" gradientUnits="userSpaceOnUse" x1="225.2802" y1="456.4084" x2="213.5411" y2="492.4084" gradientTransform="matrix(1 0 0 1 0 -170)">
			<stop  offset="5.250000e-02" style="stop-color:#48AD3C"/>
			<stop  offset="0.439" style="stop-color:#46AB3B;stop-opacity:0.5921"/>
			<stop  offset="0.7176" style="stop-color:#40A53A;stop-opacity:0.2981"/>
			<stop  offset="0.9617" style="stop-color:#369B37;stop-opacity:4.050000e-02"/>
			<stop  offset="1" style="stop-color:#349937;stop-opacity:0"/>
		</linearGradient>
		<path style="fill-rule:evenodd;clip-rule:evenodd;fill:url(#SVGID_4_);" d="M63.1,328.9c20.6-3.1,41.4-4.5,62.2-4.9
			c42.4-0.8,84.8,2.5,127.1,4.9c22.3,1.3,44.7,2.3,66.8,5.6c23.6,3.5,43.5,12.2,65.7,19.5c1.5-6.7,0.5-14.9,0.5-21.9
			c0-5.3-4.5-9.6-10-9.6c0,0-334.9,0-336,0c-5.8,0-14.3,8.7-8,12.5c3.9,2.3,25.7-5.2,30.9-6C62.6,329,62.8,329,63.1,328.9z"/>
		
			<linearGradient id="SVGID_5_" gradientUnits="userSpaceOnUse" x1="421.0913" y1="510.1897" x2="160.4826" y2="561.8419" gradientTransform="matrix(1 0 0 1 0 -170)">
			<stop  offset="0.1361" style="stop-color:#246529"/>
			<stop  offset="0.5313" style="stop-color:#256629;stop-opacity:0.5425"/>
			<stop  offset="0.6737" style="stop-color:#286B2A;stop-opacity:0.3777"/>
			<stop  offset="0.7752" style="stop-color:#2F742C;stop-opacity:0.2602"/>
			<stop  offset="0.8573" style="stop-color:#39822E;stop-opacity:0.1652"/>
			<stop  offset="0.9276" style="stop-color:#469330;stop-opacity:8.380000e-02"/>
			<stop  offset="0.9887" style="stop-color:#58AB30;stop-opacity:1.310000e-02"/>
			<stop  offset="1" style="stop-color:#5CB130;stop-opacity:0"/>
		</linearGradient>
		<path style="opacity:0.57;fill-rule:evenodd;clip-rule:evenodd;fill:url(#SVGID_5_);enable-background:new    ;" d="M375.4,321.8
			c-0.8,0-1.6,0-2.3,0c-4.3,18.1-14.6,33.9-31.5,42.5c-15.3,7.7-33.1,8.4-50.3,8.8c-73.4,2-146.8,4-220.2,6
			c62.9-1.6,126.2,0.4,189.1,0.4c38.4,0,76.8,0,115.2,0c5.5,0,10-4.3,10-9.6v-38.5C385.5,326.1,381,321.8,375.4,321.8z"/>
		
			<linearGradient id="SVGID_6_" gradientUnits="userSpaceOnUse" x1="222.43" y1="505.5209" x2="219.2995" y2="539.9557" gradientTransform="matrix(1 0 0 1 0 -170)">
			<stop  offset="0" style="stop-color:#5CB130;stop-opacity:0"/>
			<stop  offset="0.8639" style="stop-color:#1A501F;stop-opacity:0.57"/>
		</linearGradient>
		<path style="opacity:0.74;fill-rule:evenodd;clip-rule:evenodd;fill:url(#SVGID_6_);enable-background:new    ;" d="M313,365.7
			c-15.1-4.8-30.4-8.8-45.9-11.9c-7.9-1.6-15.8-3-23.7-4.2c-0.5-0.1-2.8-0.4-4.2-0.6c-1.5-0.2-3.1-0.4-4.6-0.6
			c-3.9-0.5-7.9-0.9-11.8-1.2c-14.3-1.3-28.5-1.9-42.7-0.7c-2.4,0.2-4.7,0.5-7.1,0.7c-0.1,0-0.1,0-0.1,0c-0.1,0-0.1,0-0.2,0
			c-3.2,0.6-6.4,1-9.6,1.6c-6.4,1.2-12.7,2.7-19,4.4c-13.9,3.8-27.4,8.5-40.8,13.7c-10.6,4.1-21.1,8.7-31.9,12.4h294.1
			C347.9,375.7,330.4,371.3,313,365.7z"/>
	</g>
	
		<linearGradient id="SVGID_7_" gradientUnits="userSpaceOnUse" x1="75.2257" y1="510.9308" x2="368.7039" y2="478.0612" gradientTransform="matrix(1 0 0 1 0 -170)">
		<stop  offset="5.250000e-02" style="stop-color:#51AF42;stop-opacity:0.5"/>
		<stop  offset="0.439" style="stop-color:#4EAD41;stop-opacity:0.2961"/>
		<stop  offset="0.7176" style="stop-color:#46A63D;stop-opacity:0.149"/>
		<stop  offset="0.9617" style="stop-color:#379B38;stop-opacity:2.020000e-02"/>
		<stop  offset="1" style="stop-color:#349937;stop-opacity:0"/>
	</linearGradient>
	<path style="fill-rule:evenodd;clip-rule:evenodd;fill:url(#SVGID_7_);" d="M108.5,335.6c22.5-3,45-5.2,67.7-6.7
		c62.5-4.1,125.2-3.2,187.8-1.9c7.2,0.1,14.3,2.7,21.3,2.5c-0.7-4.6-5-7.8-9.6-7.8H39.5c-5.5,0-10,4.3-10,9.6c0,3.4-0.1,6.9,0,10.3
		c0.4,8.3-0.6,8.3,8,6.9c15.3-2.5,30.5-6.6,45.8-9.1C91.7,338,100.1,336.8,108.5,335.6z"/>
	
		<linearGradient id="SVGID_8_" gradientUnits="userSpaceOnUse" x1="47.9669" y1="473.008" x2="116.0539" y2="524.6602" gradientTransform="matrix(1 0 0 1 0 -170)">
		<stop  offset="5.250000e-02" style="stop-color:#6DB757;stop-opacity:0.5"/>
		<stop  offset="0.3807" style="stop-color:#6AB654;stop-opacity:0.3268"/>
		<stop  offset="0.6173" style="stop-color:#60AF4D;stop-opacity:0.2019"/>
		<stop  offset="0.8245" style="stop-color:#4EA543;stop-opacity:9.260000e-02"/>
		<stop  offset="1" style="stop-color:#349937;stop-opacity:0"/>
	</linearGradient>
	<path class="st18" d="M47.9,372.9c-4.5-15.1,2.8-30.5,15.6-38.8c9.8-6.4,21.9-8.1,33.2-9.1c20-1.8,40.2,0.9,60.2-0.4
		c8.1-0.5,16.2-1.3,24.2-2.3c1.5-0.2,3-0.4,4.4-0.5h-146c-5.5,0-10,4.3-10,9.6v38.5c0,5.3,4.5,9.6,10,9.6h11.2
		C49.5,377.4,48.6,375.2,47.9,372.9z"/>
	
		<linearGradient id="SVGID_9_" gradientUnits="userSpaceOnUse" x1="33.1803" y1="492.4995" x2="101.2673" y2="544.1516" gradientTransform="matrix(1 0 0 1 0 -170)">
		<stop  offset="5.250000e-02" style="stop-color:#6DB757;stop-opacity:0.5"/>
		<stop  offset="0.3807" style="stop-color:#6AB654;stop-opacity:0.3268"/>
		<stop  offset="0.6173" style="stop-color:#60AF4D;stop-opacity:0.2019"/>
		<stop  offset="0.8245" style="stop-color:#4EA543;stop-opacity:9.260000e-02"/>
		<stop  offset="1" style="stop-color:#349937;stop-opacity:0"/>
	</linearGradient>
	<path class="st19" d="M96,368.7c-0.1,0-0.1,0-0.2,0c-0.9,0.2-1.7,0.3-2.6,0.5C92.6,369.4,93,369.4,96,368.7z"/>
	<g id="rect12_3_">
		
			<image style="overflow:visible;opacity:0.75;enable-background:new    ;" width="1558" height="313" xlink:href="87B928EB.png"  transform="matrix(0.2392 0 0 0.2392 17.7734 405.0161)">
		</image>
		<g>
			
				<linearGradient id="SVGID_10_" gradientUnits="userSpaceOnUse" x1="28.9" y1="606.75" x2="385" y2="606.75" gradientTransform="matrix(1 0 0 1 0 -170)">
				<stop  offset="0" style="stop-color:#158C38"/>
				<stop  offset="0.8056" style="stop-color:#58B252"/>
			</linearGradient>
			<path class="st20" d="M38.9,407.9H375c5.5,0,10,4.3,10,9.6V456c0,5.3-4.5,9.6-10,9.6H38.9c-5.5,0-10-4.3-10-9.6v-38.5
				C28.9,412.2,33.4,407.9,38.9,407.9z"/>
		</g>
	</g>
	
		<linearGradient id="SVGID_11_" gradientUnits="userSpaceOnUse" x1="121.9007" y1="732.0818" x2="152.4223" y2="651.4731" gradientTransform="matrix(1 0 0 1 0 -170)">
		<stop  offset="7.020000e-02" style="stop-color:#FFFFFF;stop-opacity:0"/>
		<stop  offset="1" style="stop-color:#79896F;stop-opacity:0.2"/>
	</linearGradient>
	<polyline class="st21" points="34.3,409.3 385,456 297.7,639.8 -87.9,527.4 34.3,409.3 	"/>
	<g>
		<g id="rect12_2_">
			
				<image style="overflow:visible;enable-background:new    ;" width="1758" height="517" xlink:href="87B928E8.png"  transform="matrix(0.2372 0 0 0.2372 -1.6317 374.88)">
			</image>
		</g>
		<g class="st23">
			
				<image style="overflow:visible;enable-background:new    ;" width="796" height="467" xlink:href="87B928F6.png"  transform="matrix(0.2369 0 0 0.2369 228.1472 374.64)">
			</image>
		</g>
		<g class="st24">
			
				<image style="overflow:visible;enable-background:new    ;" width="388" height="392" xlink:href="87B928F9.png"  transform="matrix(0.2357 0 0 0.2357 324.96 376.8087)">
			</image>
		</g>
	</g>
</g>
<g id="overlayers1_square">
	<g>
		
			<linearGradient id="SVGID_12_" gradientUnits="userSpaceOnUse" x1="544.1883" y1="209.3991" x2="644.8216" y2="302.4551" gradientTransform="matrix(1 0 0 1 0 -170)">
			<stop  offset="0.2009" style="stop-color:#43AB34"/>
			<stop  offset="0.4734" style="stop-color:#0C9D39"/>
			<stop  offset="0.9209" style="stop-color:#0F7834"/>
		</linearGradient>
		<path style="fill:url(#SVGID_12_);" d="M637.7,144.6h-86.4c-8.9,0-16-7.2-16-16V42.2c0-8.9,7.2-16,16-16h84.6
			c9.8,0,17.8,8,17.8,17.8v84.6C653.7,137.4,646.5,144.6,637.7,144.6z"/>
		
			<linearGradient id="SVGID_13_" gradientUnits="userSpaceOnUse" x1="619.1215" y1="178.7498" x2="591.7303" y2="244.489" gradientTransform="matrix(1 0 0 1 0 -170)">
			<stop  offset="0.1196" style="stop-color:#257B33"/>
			<stop  offset="0.7377" style="stop-color:#0AA239"/>
		</linearGradient>
		<path class="st25" d="M559.8,61.7c19.5,4.8,38.6,11.5,57.8,17.3c6.2,1.9,36.1,8.1,36.1,17.1V44.6c0-9.8-8-17.8-17.8-17.8h-84.6
			c-8.9,0-16,7.2-16,16v14.4C543.6,58.2,551.7,59.7,559.8,61.7z"/>
		
			<linearGradient id="SVGID_14_" gradientUnits="userSpaceOnUse" x1="597.9034" y1="225.3875" x2="611.2078" y2="201.1264" gradientTransform="matrix(1 0 0 1 0 -170)">
			<stop  offset="0" style="stop-color:#1CA638"/>
			<stop  offset="1" style="stop-color:#349937;stop-opacity:0"/>
		</linearGradient>
		<path class="st26" d="M601.7,60.6c18.2,5.9,36.2,13.6,52,24.6c0-15,0-41.3,0-41.3c0-9.8-8-17.8-17.8-17.8h-84.6
			c-8.9,0-16,7.2-16,16c0,0,0,3.7,0,7.3C557.5,49.2,580.6,53.8,601.7,60.6z"/>
		
			<linearGradient id="SVGID_15_" gradientUnits="userSpaceOnUse" x1="588.4164" y1="178.9813" x2="571.199" y2="237.6769" gradientTransform="matrix(1 0 0 1 0 -170)">
			<stop  offset="5.050505e-03" style="stop-color:#37A73C"/>
			<stop  offset="1" style="stop-color:#36A736;stop-opacity:0"/>
		</linearGradient>
		<path class="st27" d="M588.2,34.7c10.4-4.4,21.6-6.7,32.8-6.3c2.1-0.7,4.3-1.4,6.4-2h-76.2c-8.9,0-16,7.2-16,16v52
			c1.1-1.5,2.2-3,3.3-4.4c2.1-5.7,4.8-11.2,7.5-16.4C554.7,56.3,570.2,42.3,588.2,34.7z"/>
		
			<linearGradient id="SVGID_16_" gradientUnits="userSpaceOnUse" x1="555.9195" y1="234.0005" x2="525.3977" y2="215.218" gradientTransform="matrix(1 0 0 1 0 -170)">
			<stop  offset="0" style="stop-color:#52AF49"/>
			<stop  offset="1" style="stop-color:#39A835;stop-opacity:0"/>
		</linearGradient>
		<path class="st28" d="M537,94c1.3-7.7,2.4-15.7,4.7-23.1C545.1,60,550.3,51,558,42.6c7-7.7,15.3-12.8,24.2-16.7H551
			c-8.9,0-16,7.2-16,16v63.5C535.8,101.6,536.4,97.8,537,94z"/>
		
			<linearGradient id="SVGID_17_" gradientUnits="userSpaceOnUse" x1="600.9957" y1="321.3512" x2="571.2565" y2="201.612" gradientTransform="matrix(1 0 0 1 0 -170)">
			<stop  offset="0.1481" style="stop-color:#2B7A33;stop-opacity:0.74"/>
			<stop  offset="0.5379" style="stop-color:#369136;stop-opacity:0.74"/>
			<stop  offset="0.8472" style="stop-color:#399736;stop-opacity:0"/>
		</linearGradient>
		<path class="st29" d="M651.9,115.8c-3.7-5.2-14-9.5-19.4-12.4c-13.3-6.9-27.8-11.6-42.7-13.5c-1.8-0.2-3.6-0.4-5.3-0.1
			c-2.5,0.5-4.5,2.1-6.5,3.6c-5.9,4.3-12.1,8.1-18.6,11.2c-6,2.9-16.5,4.2-21.5,7.9c-4,3.1-2.6,9.4-2.6,15.7c0,8.9,7.2,16,16,16
			h86.4c8.9,0,16-7.2,16-16c0-4.5,0.8-8.7-1.7-12.3C652,115.9,652,115.8,651.9,115.8z"/>
		
			<linearGradient id="SVGID_18_" gradientUnits="userSpaceOnUse" x1="630.1278" y1="270.5384" x2="674.2252" y2="318.4332" gradientTransform="matrix(1 0 0 1 0 -170)">
			<stop  offset="0.1334" style="stop-color:#0E6C31;stop-opacity:0.57"/>
			<stop  offset="0.4828" style="stop-color:#0C9D39;stop-opacity:0"/>
		</linearGradient>
		<path class="st30" d="M635.9,26.2h-18.1c1.3,1.1,2.5,2.3,3.6,3.6c27.7,31.4,22.7,100.7-22.2,112.8c-3.5,0.9-7,1.6-10.5,2.1h49.1
			c8.9,0,16-7.2,16-16V44C653.7,34.1,645.8,26.2,635.9,26.2z"/>
	</g>
</g>
<g id="Layer_12" class="st32">
	<path id="XMLID_40_" class="st33" d="M691.5,15.5H637v45.8C662.2,57.6,687.8,41.5,691.5,15.5z"/>
	<path id="XMLID_41_" class="st33" d="M691.5,15.5c-3.7,26-29.3,42.1-54.5,45.8V200h175.5V15.5H691.5z"/>
</g>
<g id="Guitarline1">
	<g id="XMLID_14_">
		<path class="st2" d="M132.5,31.3c-0.9,0.8-1.9,1.2-3,1.5s-2.1,0.6-3.2,0.8c-2.2,0.5-4.3,0.8-6.6,1.1c-2.2,0.2-4.4,0.3-6.7,0.1
			c-2.3-0.2-4.4-0.7-6.6-1.3c-4.3-1.2-8.3-2.9-12.3-4.7c-4-1.9-7.8-3.9-11.6-6.1h0.1c-3.7-1.8-7.5-3.1-11.5-3.7s-8.1-0.6-12,0
			c-8,1.4-15.3,5.3-21.6,10.5c-3.2,2.4-5.6,5.8-7.8,9.2c-2.2,3.5-4,7.2-5.5,10.9c-3.1,7.6-5.1,15.6-6.4,23.8
			c-1.3,8.1-2,16.4-2.1,24.7v1.5v0.8v0.2v0.2v0.4c0.1,1,0.2,2,0.3,3.1c0.2,2,0.5,4.1,0.9,6.1c0.7,4.1,1.7,8.1,2.9,11.9
			c2.5,7.8,6.2,15.3,11.8,21.1c2.8,2.9,6,5.3,9.7,7c3.6,1.7,7.6,2.6,11.6,2.9c8.2,0.5,16.4-0.1,24.4-2.1c7.9-2,15.6-5.2,22.6-9.5
			c3.5-2.1,6.8-4.6,9.9-7.2c3.2-2.9,7-5.1,11.2-6.4c2.1-0.7,4.2-1.1,6.4-1.3c2.2-0.2,4.4-0.1,6.5,0.2c4.3,0.7,8.4,2.3,12.1,4.7
			c0.9,0.6,1.7,1.3,2.5,1.8c0.8,0.6,1.7,1.1,2.6,1.6c1.8,1,3.6,1.9,5.4,2.6c3.7,1.5,7.7,2.4,11.7,2.6c2,0.2,4,0,6-0.2s4-0.6,6-1
			c3.9-0.9,7.8-2.4,11.2-4.4c7-4,12.2-10.7,14.5-18.4s1.7-16.2-1-23.7l-0.1-0.2v-0.1c-0.1-0.6,0-1.1,0-1.6c0.1-0.5,0.2-1,0.3-1.4
			c0.3-0.9,0.8-1.8,1.4-2.5c1.3-1.5,3-2.4,4.7-2.9l0.2-0.1h0.2h106h0.6l0.4,0.4l5.6,5.8l-1-0.4h25.3h0.4l0.3,0.2
			c0.6,0.4,1.3,0.8,2,1.2c0.3,0.2,0.7,0.4,1,0.5l0.5,0.2l0.2,0.1c0.1,0,0.1,0,0.1,0c0.4,0.1,1.1,0.1,1.7-0.1s1.2-0.5,1.7-0.9
			c0.2-0.2,0.4-0.4,0.6-0.6c0.1-0.1,0.1-0.2,0.2-0.3c0.1-0.1,0-0.1,0.1-0.2c0.1-0.5,0-1.3-0.1-2c-0.2-1.5-0.6-3.1-1-4.6l-1.3-4.7
			c0-0.2-0.1-0.4-0.2-0.8c0-0.4,0-0.7,0.1-1c0.1-0.5,0.3-1,0.4-1.4c0.3-0.8,0.7-1.6,1-2.3c0.3-0.7,0.7-1.4,0.9-2.1
			c0-0.2,0.1-0.3,0.1-0.4s0-0.1,0-0.1s0,0,0-0.1c0-0.3-0.1-0.6-0.2-1c-0.4-1.4-1-2.9-1.6-4.4c-0.3-0.7-0.7-1.4-1-2.1
			c-0.4-0.6-0.8-1.3-1.1-1.6c-0.1-0.1-0.1-0.1,0,0c0.1,0,0.2,0,0.4,0c0.1,0,0.2,0,0.2-0.1c0,0,0.1,0,0.1-0.1l-0.2,0.1
			c-0.5,0.3-0.7,0.3-0.9,0.4c-0.2,0.1-0.5,0.1-0.7,0.2c-0.9,0.2-1.7,0.3-2.5,0.4c-3.3,0.4-6.5,0.5-9.8,0.8l-9.7,0.6l-2.5,0.1
			c-0.2,0-0.4,0-0.7,0h-0.1l0,0l0,0c0,0,0,0-0.1,0c-0.2,0-0.5,0.2-0.7,0.3c-0.6,0.3-1.2,0.8-1.9,1.2c-0.6,0.5-1.3,0.9-2.2,1.2
			l-1-1.7c0.6-0.6,1.2-1.1,1.9-1.6c0.7-0.5,1.3-1,2.1-1.4c0.4-0.2,0.8-0.4,1.3-0.5c0.1,0,0.3-0.1,0.4-0.1h0.4h0.6l2.4-0.2
			c3.2-0.3,6.4-0.5,9.7-0.7c3.2-0.2,6.5-0.4,9.6-0.7c0.8-0.1,1.6-0.2,2.3-0.3c0.2,0,0.4-0.1,0.5-0.1s0.3-0.1,0.2-0.1l0,0
			c0.1,0,0.1-0.1,0.2-0.1c0.1-0.1,0.3-0.2,0.5-0.2c0.4-0.1,0.7,0,1,0c0.5,0.2,0.8,0.4,1,0.6c0.8,0.8,1.2,1.5,1.7,2.3
			c0.4,0.8,0.8,1.5,1.1,2.3c0.7,1.5,1.3,3.1,1.8,4.7c0.1,0.4,0.2,0.8,0.3,1.4c0,0.1,0,0.3,0,0.5s0,0.3,0,0.5c0,0.3-0.1,0.5-0.2,0.8
			c-0.3,0.9-0.6,1.7-1,2.4c-0.3,0.7-0.7,1.5-1,2.2c-0.1,0.3-0.3,0.7-0.3,0.9c0,0.1,0,0.2,0,0.2s0,0.2,0.1,0.4l1.3,4.7
			c0.4,1.6,0.8,3.2,1.1,4.9c0.1,0.9,0.3,1.7,0.1,2.8c0,0.3-0.2,0.7-0.3,0.9c-0.1,0.3-0.3,0.5-0.4,0.7c-0.3,0.4-0.7,0.8-1.1,1.2
			c-0.8,0.6-1.7,1.1-2.6,1.3c-0.9,0.3-1.9,0.4-3.1,0.2c-0.1,0-0.3-0.1-0.4-0.1l-0.3-0.1c-0.2-0.1-0.4-0.2-0.6-0.3
			c-0.4-0.2-0.8-0.4-1.1-0.6c-0.7-0.4-1.4-0.9-2.1-1.3l0.8,0.2h-25.3H323l-0.4-0.4L317,86l1,0.4H211.9l0.4-0.1
			c-1.4,0.4-2.7,1.1-3.5,2.1c-0.4,0.5-0.8,1.1-0.9,1.7c-0.1,0.3-0.2,0.6-0.2,0.9s0,0.7,0,0.9l-0.1-0.3c1.5,4.1,2.3,8.3,2.5,12.6
			c0.2,4.3-0.3,8.6-1.5,12.8c-2.4,8.3-8.2,15.6-15.7,19.9c-3.7,2.2-7.8,3.7-11.9,4.7c-2.1,0.5-4.2,0.9-6.3,1.1
			c-2.1,0.2-4.3,0.4-6.4,0.2c-4.3-0.3-8.5-1.2-12.5-2.8c-2-0.8-3.9-1.7-5.8-2.8c-0.9-0.5-1.8-1.1-2.7-1.7c-0.9-0.6-1.8-1.3-2.5-1.8
			c-3.3-2.2-7.1-3.7-11-4.3c-2-0.3-3.9-0.4-5.9-0.2c-2,0.2-3.9,0.6-5.8,1.2c-3.8,1.2-7.3,3.2-10.3,6c-3.2,2.7-6.6,5.2-10.2,7.4
			c-7.2,4.5-15.1,7.7-23.3,9.8c-8.2,2-16.7,2.7-25.2,2.2c-4.3-0.3-8.6-1.3-12.5-3.1s-7.5-4.4-10.4-7.6c-5.9-6.3-9.7-14.1-12.3-22.1
			c-1.3-4-2.3-8.1-3-12.3c-0.4-2.1-0.7-4.2-0.9-6.3c-0.1-1.1-0.2-2.1-0.3-3.2v-0.4v-0.2v-0.2v-0.8v-1.6c0.1-8.4,0.8-16.8,2.1-25
			c1.4-8.3,3.4-16.5,6.6-24.3c1.6-3.9,3.4-7.7,5.7-11.3c1.1-1.8,2.4-3.5,3.7-5.2c0.7-0.8,1.4-1.6,2.1-2.4c0.4-0.4,0.8-0.8,1.2-1.1
			l1.2-1c6.5-5.4,14.3-9.6,22.8-11.1c4.3-0.7,8.6-0.8,12.9,0c4.3,0.7,8.4,2.1,12.2,3.9h0.1h0.1c3.7,2.2,7.5,4.2,11.3,6
			c3.9,1.8,7.8,3.4,11.9,4.6c2,0.6,4.1,1,6.1,1.2c1,0.1,2,0.1,3.1,0.1c1,0,2.1-0.1,3.1-0.2c4.2-0.4,8.4-1.2,12.4-2.6L132.5,31.3z"/>
	</g>
	<line id="XMLID_13_" class="st5" x1="332.8" y1="55.7" x2="332.9" y2="61.8"/>
	<line id="XMLID_12_" class="st5" x1="344.7" y1="53.2" x2="344.7" y2="60.2"/>
	<ellipse id="XMLID_11_" class="st34" cx="344.5" cy="51.7" rx="2.1" ry="2.3"/>
	<circle id="XMLID_10_" class="st34" cx="332.7" cy="55" r="1.8"/>
</g>
<g id="Guitar2">
	<g id="XMLID_29_">
		<path class="st2" d="M373.9,245.6c-0.4-0.8-0.3-1.5-0.2-2.3l0.3-2.2l0.2-2.2l0.2-2.2c0.2-3,0.1-6-0.1-8.9
			c-0.4-6-1.3-11.9-2.6-17.7v0.1c-1.6-5.4-3.4-10.8-6-15.8c-2.5-4.9-6-9.4-10.7-12.1c-4.9-2.7-10.1-4.6-15.6-5.3s-11.1-0.4-16.5,0.9
			c-5.4,1.2-10.7,3.3-15.6,5.9c-5,2.6-9.7,5.7-14.1,9.1l-3.3,2.6l-3.2,2.8c-2.2,2-4.9,3.5-7.8,4.5c-2.9,0.9-6,1.2-9,0.8
			c-3-0.3-5.9-1.4-8.5-2.8h-0.1h-0.1c-4.9-3.5-9.9-6.8-15.4-9.1c-2.7-1.1-5.5-1.9-8.4-2.2s-5.8-0.1-8.6,0.5h0.1
			c-5.3,1.7-10.6,3.4-14.9,6.6c-1.1,0.8-2.1,1.6-3.1,2.6l-1.4,1.4c-0.4,0.5-0.8,1-1.3,1.6c-1.6,2.1-2.9,4.5-3.9,7s-1.6,5.1-2,7.8
			c-0.2,1.3-0.3,2.7-0.4,4.1c0,1.4-0.1,2.7-0.1,4.1c0,5.5,0.8,11,1.7,16.5v0.1v0.1c0,0.9-0.4,1.6-0.9,2.2c-0.5,0.6-1.2,1.1-2.2,1.1
			h0.1c-17.9,1.6-35.8,1.8-53.6,1.4c-8.9-0.2-17.9-0.5-26.8-0.8l-13.4-0.5l-3.3-0.1l-1.7-0.1h-0.4h-0.2h-0.3c-0.4,0-0.9-0.2-1.3-0.4
			c-0.9-0.5-1.3-1.3-1.6-1.8c-0.3-0.6-0.5-1-0.8-1.4c-0.5-0.8-1-1.2-1.8-1.4h0.2c-2.6-0.3-5.2-0.1-7.8,0.1c-2.7,0.3-5.4,0.6-8.2,0.7
			c-2.8,0-5.8-0.3-8.5-1.4l-1-0.4l-0.3-0.2c-0.1,0-0.2-0.1-0.3-0.1c-0.4-0.1-0.9-0.1-1.3,0.1c-0.4,0.1-0.7,0.4-0.8,0.6
			c-0.1,0.2-0.2,0.5,0,1l0.1,0.2v0.2c0,7.1-0.9,14.1-0.9,21l-0.1-0.4c0.5,1.7,0.9,3.4,1.5,4.8c0.3,0.7,0.7,1.3,1.2,1.7
			s0.9,0.6,1.5,0.6h-0.3c2.5-0.6,5.1-0.7,7.6-0.7s4.9,0.1,7.3,0c2.4,0,4.7-0.3,6.9-1c0.5-0.2,1.1-0.4,1.6-0.6c0.5-0.3,1-0.5,1.5-0.7
			c0.5-0.3,1-0.5,1.4-0.9c0.5-0.3,0.8-0.8,1.5-0.8l1.2,1.5c-0.8,1-1.9,1.7-3,2.4c-0.6,0.3-1.1,0.6-1.7,0.9s-1.2,0.5-1.8,0.7
			c-2.4,0.8-5,1.1-7.5,1.1s-4.9,0-7.3,0s-4.8,0.1-7,0.6h-0.1h-0.2c-1.2,0-2.4-0.5-3.3-1.3c-0.8-0.8-1.4-1.7-1.8-2.5
			c-0.8-1.8-1.2-3.5-1.7-5.1l-0.1-0.2v-0.2c0-7.1,0.9-14.1,0.9-21l0.1,0.4c-0.3-0.9-0.3-2,0.2-3c0.6-1,1.5-1.6,2.3-1.8
			c0.9-0.3,1.8-0.3,2.7-0.1c0.2,0.1,0.5,0.1,0.7,0.2l0.6,0.3L72,237c2.3,1,4.8,1.3,7.4,1.2s5.3-0.4,8-0.7s5.6-0.4,8.4-0.1h0.1H96
			c0.7,0.2,1.4,0.5,2,1s1.1,1.1,1.4,1.6c0.3,0.6,0.6,1.1,0.8,1.5c0.2,0.4,0.4,0.7,0.6,0.7c0.1,0,0.1,0.1,0.3,0.1h0.1h0.2h0.4
			l1.7,0.1l3.4,0.1l13.4,0.5c8.9,0.3,17.8,0.6,26.7,0.8c17.8,0.4,35.6,0.2,53.4-1.4h0.2l0,0c-0.1,0,0.1,0,0.2-0.2
			c0.1-0.1,0.2-0.4,0.2-0.4v0.2c-0.9-5.6-1.7-11.2-1.7-16.9c0-1.4,0-2.9,0.1-4.3c0.1-1.4,0.2-2.9,0.4-4.3c0.4-2.9,1.1-5.7,2.1-8.4
			s2.5-5.3,4.2-7.6c0.5-0.6,0.9-1.2,1.4-1.7l1.5-1.6c1-1.1,2.2-2,3.4-2.8c4.8-3.4,10.3-5.3,15.6-6.9h0.1h0.1
			c3.1-0.7,6.3-0.9,9.5-0.6c3.2,0.4,6.2,1.2,9.1,2.4c5.8,2.4,10.9,5.9,15.9,9.4l-0.1-0.1c4.7,2.6,10.4,3.4,15.5,1.8
			c2.5-0.8,4.9-2.2,6.9-3.9l3.2-2.8l3.4-2.7c4.6-3.5,9.4-6.7,14.5-9.4s10.6-4.9,16.3-6.1c5.7-1.3,11.6-1.7,17.4-0.9
			c0.7,0.1,1.5,0.1,2.2,0.3l2.1,0.5l2.1,0.5c0.7,0.2,1.4,0.5,2.1,0.7c1.4,0.5,2.8,0.9,4.1,1.6l2,0.9c0.7,0.3,1.3,0.6,2,1
			c2.6,1.4,5,3.5,6.9,5.7c1.9,2.3,3.5,4.8,4.9,7.4c2.7,5.2,4.5,10.7,6.2,16.2l0,0v0.1c1.4,6,2.3,12,2.7,18.1
			c0.2,3.1,0.3,6.1,0.1,9.2c-0.2,3.1-0.7,6.1-1.1,9.1L373.9,245.6z"/>
	</g>
	<line id="XMLID_9_" class="st5" x1="185.7" y1="253.4" x2="185.7" y2="259.4"/>
	<line id="XMLID_8_" class="st5" x1="170.6" y1="252.8" x2="170.6" y2="259.8"/>
	<ellipse id="XMLID_7_" class="st34" cx="170.8" cy="251.2" rx="2.1" ry="2.3"/>
	<circle id="XMLID_5_" class="st34" cx="185.9" cy="252.6" r="1.8"/>
	<rect id="XMLID_23_" x="101.9" y="218.3" class="st1" width="294" height="58.7"/>
	<text id="XMLID_24_" transform="matrix(1 0 0 1 101.8677 265.7657)" class="st2 st35 st36">snapsnare</text>
</g>
<g id="Layer_28" class="st32">
	<ellipse id="XMLID_125_" class="st37" cx="541.5" cy="420.6" rx="79" ry="84.6"/>
	<polygon id="XMLID_128_" class="st37" points="553.7,343 553.7,342.8 553.4,342.7 553.5,343.1 	"/>
	<line id="XMLID_175_" class="st38" x1="538.9" y1="343.2" x2="539" y2="342.5"/>
	<polygon id="XMLID_150_" class="st37" points="541,476.9 541,477.1 540.5,477.1 539.9,477.1 539.4,477 539,477 539,476.9 
		540.3,476.5 	"/>
	<polyline id="XMLID_183_" class="st37" points="527.1,474.1 527.1,474.8 526.2,474.5 525.6,474.3 	"/>
</g>
<g id="Layer_9">
	<g id="XMLID_50_">
		<path id="XMLID_25_" class="st2" d="M749.8,153c-6.3,0-20.5-8.7-34.3-17c-12.5-7.6-24.9-14.7-26.9-18.3C686.2,113.5,687,81,687,81
			s-1-29.8,1.5-34c3-4.8,16.5-12.6,30.4-20.5c12.8-7.3,25.9-14.8,30.8-14.8c5.1,0,18,8,31.4,15.8S808.7,42.8,811,47
			c2.5,4.7,2.6,22.8,2.5,39.5c-0.1,13.4,0.4,26-2.8,30.3c-3.4,4.6-14.9,11.3-27.2,19C770.3,144,756,153,749.8,153z"/>
		
			<linearGradient id="XMLID_6_" gradientUnits="userSpaceOnUse" x1="743.8694" y1="253.3072" x2="739.8694" y2="332.9739" gradientTransform="matrix(1 0 0 1 0 -170)">
			<stop  offset="0" style="stop-color:#5CB130;stop-opacity:0"/>
			<stop  offset="0.8639" style="stop-color:#1A501F"/>
		</linearGradient>
		<path id="XMLID_43_" class="st39" d="M775.1,125.6c-3.1-3.5-6.1-7.2-8.7-11.3c-1.5-2.3-2.8-4.7-4.8-6.6
			c-9.7-9.7-32.9-2.5-42.4,4.2c-6.7,4.7-12.9,10.4-20.4,14c4.8,3.1,10.7,6.5,16.6,10.1c13.8,8.3,28,17,34.3,17
			c5,0,10.3-3.4,14.5-5.7c6.3-3.4,14.9-7.2,20-12.2C781.1,131.9,778,128.9,775.1,125.6z"/>
		<path id="XMLID_26_" class="st40" d="M703.4,52.9c17.4,1.6,32.8,5.4,49.3,10.4c14.2,4.3,28.6,8.6,41.6,15.9
			c6.4,3.6,12.3,8,17.5,13.1c0.1-16.2-0.1-33-2.6-37.6c-2.3-4.3-16.3-11.8-29.8-19.6S753.1,19.3,748,19.3c-4.9,0-18,7.5-30.8,14.8
			C705,41,693.1,47.9,688.4,52.7C693.4,52.4,698.4,52.4,703.4,52.9z"/>
		
			<linearGradient id="XMLID_16_" gradientUnits="userSpaceOnUse" x1="753.2632" y1="230.4961" x2="766.0544" y2="192.8747" gradientTransform="matrix(1 0 0 1 0 -170)">
			<stop  offset="5.250000e-02" style="stop-color:#1CA638"/>
			<stop  offset="0.439" style="stop-color:#1FA538;stop-opacity:0.5921"/>
			<stop  offset="0.7176" style="stop-color:#28A137;stop-opacity:0.2981"/>
			<stop  offset="0.9617" style="stop-color:#329A37;stop-opacity:4.050000e-02"/>
			<stop  offset="1" style="stop-color:#349937;stop-opacity:0"/>
		</linearGradient>
		<path id="XMLID_32_" class="st41" d="M705.1,45.2c17.4,1.6,32.8,5.4,49.3,10.4c14.2,4.3,28.6,8.6,41.6,15.9
			c6.4,3.6,12.3,8,17.5,13.1c0.1-16.2-0.1-33-2.6-37.6c-2.3-4.3-16.3-11.8-29.8-19.6s-26.3-15.8-31.4-15.8c-4.9,0-18,7.5-30.8,14.8
			c-12.2,6.9-24.1,13.8-28.8,18.6C695,44.7,700.1,44.7,705.1,45.2z"/>
		
			<linearGradient id="XMLID_28_" gradientUnits="userSpaceOnUse" x1="779.9874" y1="206.5655" x2="774.0795" y2="324.2305" gradientTransform="matrix(1 0 0 1 0 -170)">
			<stop  offset="0.1361" style="stop-color:#246529"/>
			<stop  offset="0.5313" style="stop-color:#256629;stop-opacity:0.5425"/>
			<stop  offset="0.6737" style="stop-color:#286B2A;stop-opacity:0.3777"/>
			<stop  offset="0.7752" style="stop-color:#2F742C;stop-opacity:0.2602"/>
			<stop  offset="0.8573" style="stop-color:#39822E;stop-opacity:0.1652"/>
			<stop  offset="0.9276" style="stop-color:#469330;stop-opacity:8.380000e-02"/>
			<stop  offset="0.9887" style="stop-color:#58AB30;stop-opacity:1.310000e-02"/>
			<stop  offset="1" style="stop-color:#5CB130;stop-opacity:0"/>
		</linearGradient>
		<path id="XMLID_34_" class="st42" d="M811,47c-1.3-2.3-6.1-5.7-12.4-9.5c0.1,0.3,0.2,0.6,0.3,0.9c11.5,21.8,6.7,53.3-6.6,73.3
			c-6.2,9.3-14.6,17.1-24.1,23.1c-9.8,6.2-20.3,8.9-30.6,13.5c2,2.5,8.7,4.7,12.2,4.7c6.2,0,20.5-9,33.8-17.3
			c12.3-7.7,23.8-14.4,27.2-19c3.1-4.2,2.7-16.8,2.8-30.3C813.6,69.8,813.5,51.7,811,47z"/>
		
			<linearGradient id="XMLID_37_" gradientUnits="userSpaceOnUse" x1="730.6002" y1="215.5158" x2="713.2668" y2="184.8491" gradientTransform="matrix(1 0 0 1 0 -170)">
			<stop  offset="5.250000e-02" style="stop-color:#51AF42;stop-opacity:0.5"/>
			<stop  offset="0.439" style="stop-color:#4EAD41;stop-opacity:0.2961"/>
			<stop  offset="0.7176" style="stop-color:#46A63D;stop-opacity:0.149"/>
			<stop  offset="0.9617" style="stop-color:#379B38;stop-opacity:2.020000e-02"/>
			<stop  offset="1" style="stop-color:#349937;stop-opacity:0"/>
		</linearGradient>
		<path id="XMLID_35_" class="st43" d="M688.2,74.1c11.6-19.1,28.8-31.9,50-38.3c8.6-2.6,18-4,26.8-5.5c5.6-1,11.2-1.8,16.8-2.4
			c-0.2-0.1-0.4-0.2-0.6-0.4c-13.5-7.8-26.3-15.8-31.4-15.8c-4.9,0-18,7.5-30.8,14.8c-13.8,7.9-27.4,15.7-30.4,20.5
			c-2,3.2-1.8,20.8-1.7,29.4C687.3,75.6,687.7,74.9,688.2,74.1z"/>
		
			<linearGradient id="XMLID_255_" gradientUnits="userSpaceOnUse" x1="714.6504" y1="213.8412" x2="706.317" y2="196.5079" gradientTransform="matrix(1 0 0 1 0 -170)">
			<stop  offset="5.250000e-02" style="stop-color:#6DB757;stop-opacity:0.5"/>
			<stop  offset="0.3807" style="stop-color:#6AB654;stop-opacity:0.3268"/>
			<stop  offset="0.6173" style="stop-color:#60AF4D;stop-opacity:0.2019"/>
			<stop  offset="0.8245" style="stop-color:#4EA543;stop-opacity:9.260000e-02"/>
			<stop  offset="1" style="stop-color:#349937;stop-opacity:0"/>
		</linearGradient>
		<path id="XMLID_36_" class="st44" d="M713.5,40.2c1.4-1.1,2.8-2.1,4.3-3.2c6.6-4.7,13.5-8.9,20.5-12.8c3.5-1.9,7.2-3.8,10.8-5.5
			c1.2-0.6,8.3-4.6,9.6-4c-3.8-1.9-7-3.1-9-3.1c-4.9,0-18,7.5-30.8,14.8c-13.8,7.9-27.4,15.7-30.4,20.5c-2.6,4.2-1.5,34-1.5,34
			c-0.2,8.8-0.1,17.6,0.1,26.4c1.7-9.8,2.7-19.7,4.6-29.4c1.9-10,5.2-20.1,11.5-28.1C706.2,46.2,709.7,43,713.5,40.2z"/>
	</g>
</g>
<g id="Layer_14">
	<g id="XMLID_278_">
		<path id="XMLID_285_" class="st2" d="M751.4,310c-6.3,0-20.5-8.7-34.3-17c-12.5-7.6-24.9-14.7-26.9-18.3
			c-2.3-4.2-1.5-36.7-1.5-36.7s-1-29.8,1.5-34c3-4.8,16.5-12.6,30.4-20.5c12.8-7.3,25.9-14.8,30.8-14.8c5.1,0,18,8,31.4,15.8
			s27.5,15.3,29.8,19.6c2.5,4.7,2.6,22.8,2.5,39.5c-0.1,13.4,0.4,26-2.8,30.2c-3.4,4.6-14.9,11.3-27.2,19
			C771.9,301,757.6,310,751.4,310z"/>
		
			<linearGradient id="XMLID_256_" gradientUnits="userSpaceOnUse" x1="745.5693" y1="410.3098" x2="741.5693" y2="489.9765" gradientTransform="matrix(1 0 0 1 0 -170)">
			<stop  offset="0" style="stop-color:#5CB130;stop-opacity:0"/>
			<stop  offset="0.8639" style="stop-color:#1A501F"/>
		</linearGradient>
		<path id="XMLID_284_" class="st45" d="M776.8,282.6c-3.1-3.5-6.1-7.2-8.7-11.3c-1.5-2.3-2.8-4.7-4.8-6.6
			c-9.7-9.7-32.9-2.5-42.4,4.2c-6.7,4.7-12.9,10.4-20.4,14c4.8,3,10.7,6.5,16.6,10.1c13.8,8.3,28,17,34.3,17c5,0,10.3-3.4,14.5-5.7
			c6.3-3.5,14.9-7.2,20-12.2C782.8,288.9,779.7,285.9,776.8,282.6z"/>
		<path id="XMLID_283_" class="st40" d="M705.1,209.9c17.4,1.6,32.8,5.4,49.3,10.4c14.2,4.3,28.6,8.6,41.6,15.9
			c6.4,3.6,12.3,8,17.5,13.1c0.1-16.2-0.1-33.1-2.6-37.6c-2.3-4.3-16.3-11.8-29.8-19.6s-26.3-15.8-31.4-15.8
			c-4.9,0-18,7.5-30.8,14.8c-12.2,6.9-24.1,13.8-28.8,18.6C695,209.4,700.1,209.4,705.1,209.9z"/>
		
			<linearGradient id="XMLID_259_" gradientUnits="userSpaceOnUse" x1="754.8683" y1="387.4814" x2="767.6595" y2="349.86" gradientTransform="matrix(1 0 0 1 0 -170)">
			<stop  offset="5.250000e-02" style="stop-color:#1CA638"/>
			<stop  offset="0.439" style="stop-color:#1FA538;stop-opacity:0.5921"/>
			<stop  offset="0.7176" style="stop-color:#28A137;stop-opacity:0.2981"/>
			<stop  offset="0.9617" style="stop-color:#329A37;stop-opacity:4.050000e-02"/>
			<stop  offset="1" style="stop-color:#349937;stop-opacity:0"/>
		</linearGradient>
		<path id="XMLID_282_" class="st46" d="M706.7,202.2c17.4,1.6,32.8,5.4,49.3,10.4c14.2,4.3,28.6,8.6,41.6,15.9
			c6.4,3.6,12.3,8,17.5,13.1c0.1-16.2-0.1-33.1-2.6-37.6c-2.3-4.3-16.3-11.8-29.8-19.6s-26.3-15.8-31.4-15.8
			c-4.9,0-18,7.5-30.8,14.8c-12.2,6.9-24.1,13.8-28.8,18.6C696.7,201.7,701.7,201.7,706.7,202.2z"/>
		
			<linearGradient id="XMLID_260_" gradientUnits="userSpaceOnUse" x1="781.5873" y1="363.5655" x2="775.6795" y2="481.2306" gradientTransform="matrix(1 0 0 1 0 -170)">
			<stop  offset="0.1361" style="stop-color:#246529"/>
			<stop  offset="0.5313" style="stop-color:#256629;stop-opacity:0.5425"/>
			<stop  offset="0.6737" style="stop-color:#286B2A;stop-opacity:0.3777"/>
			<stop  offset="0.7752" style="stop-color:#2F742C;stop-opacity:0.2602"/>
			<stop  offset="0.8573" style="stop-color:#39822E;stop-opacity:0.1652"/>
			<stop  offset="0.9276" style="stop-color:#469330;stop-opacity:8.380000e-02"/>
			<stop  offset="0.9887" style="stop-color:#58AB30;stop-opacity:1.310000e-02"/>
			<stop  offset="1" style="stop-color:#5CB130;stop-opacity:0"/>
		</linearGradient>
		<path id="XMLID_281_" class="st47" d="M812.6,204c-1.3-2.3-6.1-5.7-12.4-9.5c0.1,0.3,0.2,0.6,0.3,0.9c11.5,21.8,6.7,53.3-6.6,73.3
			c-6.2,9.4-14.6,17.1-24.1,23.1c-9.8,6.2-20.3,9-30.6,13.5c2,2.5,8.7,4.7,12.2,4.7c6.2,0,20.5-9,33.8-17.3
			c12.3-7.7,23.8-14.4,27.2-19c3.1-4.2,2.7-16.8,2.8-30.3C815.2,226.8,815.1,208.7,812.6,204z"/>
		
			<linearGradient id="XMLID_261_" gradientUnits="userSpaceOnUse" x1="732.2119" y1="372.5364" x2="714.8787" y2="341.8698" gradientTransform="matrix(1 0 0 1 0 -170)">
			<stop  offset="5.250000e-02" style="stop-color:#51AF42;stop-opacity:0.5"/>
			<stop  offset="0.439" style="stop-color:#4EAD41;stop-opacity:0.2961"/>
			<stop  offset="0.7176" style="stop-color:#46A63D;stop-opacity:0.149"/>
			<stop  offset="0.9617" style="stop-color:#379B38;stop-opacity:2.020000e-02"/>
			<stop  offset="1" style="stop-color:#349937;stop-opacity:0"/>
		</linearGradient>
		<path id="XMLID_280_" class="st48" d="M689.8,231.1c11.6-19.1,28.8-31.9,50-38.3c8.6-2.6,18-4,26.8-5.5c5.6-1,11.2-1.8,16.8-2.4
			c-0.2-0.1-0.4-0.2-0.6-0.4c-13.5-7.8-26.3-15.8-31.4-15.8c-4.9,0-18,7.5-30.8,14.8c-13.8,7.9-27.4,15.7-30.4,20.5
			c-2,3.2-1.8,20.9-1.7,29.4C689,232.6,689.4,231.9,689.8,231.1z"/>
		
			<linearGradient id="XMLID_262_" gradientUnits="userSpaceOnUse" x1="716.3409" y1="370.8208" x2="708.0077" y2="353.4875" gradientTransform="matrix(1 0 0 1 0 -170)">
			<stop  offset="5.250000e-02" style="stop-color:#6DB757;stop-opacity:0.5"/>
			<stop  offset="0.3807" style="stop-color:#6AB654;stop-opacity:0.3268"/>
			<stop  offset="0.6173" style="stop-color:#60AF4D;stop-opacity:0.2019"/>
			<stop  offset="0.8245" style="stop-color:#4EA543;stop-opacity:9.260000e-02"/>
			<stop  offset="1" style="stop-color:#349937;stop-opacity:0"/>
		</linearGradient>
		<path id="XMLID_279_" class="st49" d="M715.2,197.1c1.4-1.1,2.8-2.1,4.3-3.1c6.6-4.7,13.5-8.9,20.5-12.8c3.5-1.9,7.2-3.8,10.8-5.5
			c1.2-0.6,8.3-4.6,9.6-4c-3.8-1.9-7-3.1-9-3.1c-4.9,0-18,7.5-30.8,14.8c-13.8,7.9-27.4,15.7-30.4,20.5c-2.6,4.2-1.5,34-1.5,34
			c-0.2,8.8-0.1,17.6,0.1,26.4c1.7-9.8,2.7-19.7,4.6-29.4c1.9-10,5.2-20.1,11.5-28.1C707.8,203.2,711.4,200,715.2,197.1z"/>
	</g>
</g>
<g id="Layer_19">
	<circle id="XMLID_305_" class="st2" cx="595.3" cy="369.6" r="67.3"/>
	
		<linearGradient id="XMLID_263_" gradientUnits="userSpaceOnUse" x1="597.1574" y1="555.7136" x2="598.1574" y2="532.5886" gradientTransform="matrix(1 0 0 1 0 -170)">
		<stop  offset="0" style="stop-color:#F0E752"/>
		<stop  offset="9.600000e-02" style="stop-color:#F4E84A"/>
		<stop  offset="0.2809" style="stop-color:#F6E945"/>
		<stop  offset="0.6685" style="stop-color:#F18F34"/>
		<stop  offset="0.8876" style="stop-color:#E95F32"/>
		<stop  offset="1" style="stop-color:#E84235"/>
	</linearGradient>
	<path id="XMLID_304_" class="st50" d="M589.9,385.3c0,0-2.4-3.5-1.9-5.6s2.4-6.4,4.8-7s4.3-4.5,4.4-5.3c0.1-0.8-0.1-5-1.8-5.5
		s4.4-0.6,5.4,1.5s4.9,7.4,3.8,11.9S602,381,602,381s3.5-1.4,3.8-3.3s1.4,1,1,2.5s-0.3,2.5-2.5,5.2S589.9,385.3,589.9,385.3z"/>
	<path id="XMLID_303_" class="st51" d="M593.9,385.1c0,0-1.9-3.5-1.3-5.5s1.4-4.6,2.7-5.5s2.8-1.4,3-2.7s2,4.5,0.5,6.8
		s-1.7,5.3-1.7,5.3l0.2,1.9L593.9,385.1z"/>
	<path id="XMLID_302_" class="st51" d="M597.4,385.5c0,0,0.5-2.4,1.3-2.6s2.9,0.9,3.9,0s0.8,0.8,0,1.3s-1.8,1.3-1.8,1.3L597.4,385.5
		"/>
	<circle id="XMLID_301_" class="st2" cx="595.3" cy="369.8" r="67.3"/>
</g>
<g id="Layer_24">
	<g id="XMLID_130_">
		<g id="XMLID_137_">
			<polygon id="XMLID_139_" class="st52" points="560.2,390.6 560.2,327.7 568.3,337 561.2,335.5 571.5,348 563.4,347 565.8,348.8 
				562.3,347.7 575.3,364.8 564.3,363.3 566.7,366 562.3,365 579,378 567.8,377.5 569.6,379.7 566.1,379.1 583.9,392.4 560.2,391.2 
							"/>
			<polygon id="XMLID_138_" class="st52" points="560.2,390.6 560.2,327.7 552.1,337 559.3,335.5 549,348 557.1,347 554.6,348.8 
				558.2,347.7 545.1,364.8 556.1,363.3 553.8,366 558.2,365 541.5,378 552.7,377.5 550.8,379.7 554.3,379.1 536.5,392.4 
				560.2,391.2 			"/>
		</g>
		<g id="XMLID_131_">
			<path id="XMLID_136_" class="st52" d="M566.5,336c-1.8-1.4-3.8-2.6-5.7-4c0.2-0.6,0.3-1.3,0.6-1.9c0.1-0.3,0.2-0.6,0.2-0.8
				l6.7,7.7l-1.2-0.3C567,336.5,566.8,336.2,566.5,336z"/>
			<path id="XMLID_135_" class="st52" d="M561.5,338.3c-0.2-0.9-0.3-1.8-0.5-2.7c0.2,0.1,0.4,0.3,0.6,0.4l9.8,11.9l-3.7-0.4
				C565.8,344.4,563.7,341.4,561.5,338.3z"/>
			<path id="XMLID_134_" class="st52" d="M562.8,365.9c0.6,0.4,1.2,0.7,1.8,1l0.5,0.4v0.1c0.2,0.4,0.5,0.6,0.9,0.6l12.9,10l-4.7-0.2
				C570.9,373.5,566.5,370,562.8,365.9z"/>
			<path id="XMLID_133_" class="st52" d="M562.7,377.2c1.8,1,3.5,2,5.2,3.3c0.2,0.1,0.4,0.2,0.5,0.3l15.5,11.6l-9.2-0.5
				C570.9,386.8,566.7,382.1,562.7,377.2z"/>
			<path id="XMLID_132_" class="st52" d="M566.2,356c-1.8-3.1-3.9-6.1-5.5-9.3c0.8,0.7,1.5,1.4,2.3,2l12.2,16l-4.8-0.7
				C569,361.5,567.8,358.7,566.2,356z"/>
		</g>
	</g>
	<g id="XMLID_140_">
		<g id="XMLID_147_">
			<polygon id="XMLID_149_" class="st52" points="625.9,394.2 625.9,333.7 633.3,342.6 626.8,341.2 636.2,353.2 628.8,352.3 
				631.1,354 627.8,352.9 639.7,369.4 629.7,368 631.8,370.6 627.8,369.6 643.1,382.1 632.8,381.7 634.5,383.8 631.3,383.2 
				647.6,396 625.9,394.8 			"/>
			<polygon id="XMLID_148_" class="st52" points="625.9,394.2 625.9,333.7 618.6,342.6 625.1,341.2 615.7,353.2 623.1,352.3 
				620.8,354 624.1,352.9 612.2,369.4 622.2,368 620.1,370.6 624.1,369.6 608.8,382.1 619.1,381.7 617.4,383.8 620.6,383.2 
				604.3,396 625.9,394.8 			"/>
		</g>
		<g id="XMLID_141_">
			<path id="XMLID_146_" class="st52" d="M631.7,341.7c-1.7-1.3-3.5-2.5-5.2-3.8c0.2-0.6,0.3-1.2,0.5-1.8c0.1-0.3,0.2-0.5,0.2-0.8
				l6.1,7.4l-1.1-0.3C632.1,342.1,632,341.9,631.7,341.7z"/>
			<path id="XMLID_145_" class="st52" d="M627.1,344c-0.2-0.9-0.3-1.8-0.4-2.6c0.2,0.1,0.4,0.3,0.5,0.4l9,11.5l-3.4-0.4
				C631,349.8,629.1,346.9,627.1,344z"/>
			<path id="XMLID_144_" class="st52" d="M628.3,370.4c0.5,0.3,1.1,0.7,1.7,0.9l0.5,0.4v0.1c0.2,0.4,0.5,0.6,0.8,0.6l11.8,9.6
				l-4.3-0.2C635.7,377.7,631.7,374.4,628.3,370.4z"/>
			<path id="XMLID_143_" class="st52" d="M628.2,381.4c1.6,1,3.2,2,4.7,3.2c0.2,0.1,0.3,0.2,0.5,0.3l14.2,11.1l-8.4-0.5
				C635.7,390.6,631.9,386.1,628.2,381.4z"/>
			<path id="XMLID_142_" class="st52" d="M631.4,361c-1.7-3-3.5-5.8-5-9c0.7,0.6,1.4,1.3,2.1,2l11.1,15.4l-4.4-0.6
				C634,366.2,632.8,363.5,631.4,361z"/>
		</g>
	</g>
</g>
<g id="Layer_25">
	<g id="XMLID_155_">
		<path id="XMLID_229_" class="st1" d="M655.7,343.3l-3.9-1.2l9.1,12c-1-4.3-2.4-8.4-4.2-12.3l-3.7-0.4L655.7,343.3z"/>
		<path id="XMLID_177_" class="st1" d="M659.8,377.2l-3.8-0.7l5.8,4.3c0.3-1.9,0.5-3.9,0.7-5.8l-4.7-0.2L659.8,377.2z"/>
		<path id="XMLID_176_" class="st1" d="M656.5,362.2l-4.8-1.2l10.9,8.5c0-3.1-0.2-6.2-0.7-9.2l-8-1.1L656.5,362.2z"/>
		<path id="XMLID_174_" class="st1" d="M537.8,341.3l2.7-2l-5.7,0.7c-2.5,5.1-4.4,10.7-5.6,16.5l12.5-16.4L537.8,341.3z"/>
		<path id="XMLID_173_" class="st1" d="M649.5,389.7l-26,1.3l19.5-14.6l-3.8,0.7l2-2.4L634,375l0,0l-5.1,0.2l14.1-11l0,0l4.2-3.3
			l-4.8,1.2l2.5-3l-6.7,0.9l0,0l-5.3,0.7l14.3-18.8l-3.9,1.2l2.7-2l-8.9,1l10.8-13l0,0l0.5-0.6l-7.8,1.6l4.9-5.6
			c-12.3-13.8-30.2-22.4-50.2-22.4c-18.7,0-35.6,7.6-47.8,19.9l5.3,6.1l-7.8-1.6l0.5,0.6l0,0l10.8,13l-8.9-1l2.7,2l-3.9-1.2
			l14.3,18.8l-5.3-0.7l0,0l-6.7-0.9l2.5,3l-4.8-1.2l4.2,3.3l0,0l5.7,4.4l8.5,6.6l0,0l0,0l-5.1-0.2l0,0l-7.2-0.3l2,2.4l-3.8-0.7
			L570,389l-26-1.3l-13.3,0.7c8.1,28,34,48.6,64.7,48.6c30,0,55.4-19.6,64.1-46.7L649.5,389.7z"/>
		<path id="XMLID_172_" class="st1" d="M533.7,375.2l2-2.4l-7.7,0.3c0.1,2.6,0.4,5.2,0.9,7.8l8.6-6.4L533.7,375.2z"/>
		<path id="XMLID_171_" class="st1" d="M536.9,360.2l2.5-3l-10.6,1.5c-0.6,3.6-0.9,7.2-0.9,11v0.1l13.8-10.7L536.9,360.2z"/>
		<path id="XMLID_170_" class="st53" d="M642,330.1l-1.3,0.3l7.8-1.6l-0.5,0.6c0.2-0.1,0.4-0.3,0.7-0.5c-0.1,1-0.3,2-0.5,3
			c-2.3,3.3-4.7,6.6-6.8,10l-4.1,0.5l8.9-1l-2.7,2l3.9-1.2L633,360.9l13.4-17.6c0.8-0.7,1.7-1.5,2.5-2.2c-1.7,3.5-4,6.8-6,10.2
			c-1.7,2.9-3.1,5.9-4.6,8.9l6.7-0.9l-2.5,3l4.8-1.2l-4.2,3.3c0.4-0.1,0.7-0.3,1-0.7c0,0,0-0.1,0.1-0.1l0.5-0.4
			c0.7-0.3,1.4-0.7,2-1.1c-4,4.6-8.8,8.3-12.6,13.1l7.2-0.3l-2,2.4l3.8-0.7l-19.5,14.6l17-12.7c0.2,0,0.4-0.1,0.6-0.3
			c1.8-1.4,3.7-2.5,5.6-3.6c-4.4,5.3-9,10.5-13.1,16.1l-10.1,0.5l26-1.3v-0.7v-59.4c-0.8-1.1-1.7-2.2-2.6-3.3c-1.4,1-2.9,1.9-4.3,3
			C642.3,329.5,642.1,329.8,642,330.1z"/>
		<path id="XMLID_169_" class="st53" d="M649.5,389.7l10,0.5c1-3.1,1.7-6.2,2.3-9.4l-5.8-4.3l3.8,0.7l-2-2.4l4.7,0.2
			c0.1-1.8,0.2-3.5,0.2-5.3v-0.1l-10.9-8.5l4.8,1.2l-2.5-3l8,1.1c-0.3-2.1-0.7-4.2-1.2-6.3l-9.1-12l3.9,1.2l-2.7-2l3.7,0.4
			c-2-4.3-4.3-8.4-7.1-12.1V389L649.5,389.7L649.5,389.7z"/>
		<path id="XMLID_168_" class="st54" d="M642,330.1c0.1-0.3,0.3-0.5,0.6-0.8c1.4-1,2.9-2,4.3-3c-0.5-0.5-0.9-1.1-1.4-1.6l-4.9,5.6
			L642,330.1z"/>
		<path id="XMLID_167_" class="st54" d="M648,331.9c0.2-1,0.4-2,0.5-3c-0.2,0.1-0.4,0.3-0.7,0.5l0,0l-10.8,13l4.1-0.5
			C643.4,338.5,645.7,335.2,648,331.9z"/>
		<path id="XMLID_166_" class="st54" d="M646.6,362c-0.7,0.4-1.3,0.8-2,1.1l-0.5,0.4c0,0,0,0.1-0.1,0.1c-0.3,0.4-0.6,0.6-1,0.7l0,0
			l-14.1,11l5.1-0.2l0,0C637.8,370.3,642.6,366.6,646.6,362z"/>
		<path id="XMLID_165_" class="st54" d="M646.7,374.5c-1.9,1.1-3.9,2.2-5.6,3.6c-0.2,0.1-0.4,0.3-0.6,0.3l-17,12.7l10.1-0.5
			C637.8,385,642.3,379.8,646.7,374.5z"/>
		<path id="XMLID_164_" class="st54" d="M648.9,341.1c-0.8,0.7-1.7,1.5-2.5,2.2L633,360.9l5.3-0.7l0,0c1.6-3,3-6,4.6-8.9
			C644.9,347.8,647.2,344.6,648.9,341.1z"/>
		<path id="XMLID_163_" class="st53" d="M564.6,373.3l-8.5-6.6L564.6,373.3z"/>
		<path id="XMLID_162_" class="st53" d="M544,387.7l26,1.3l-10.1-0.5c-4.1-5.5-8.7-10.7-13.1-16.1c1.9,1.1,3.9,2.2,5.6,3.6
			c0.2,0.1,0.4,0.3,0.6,0.3l17,12.7l-19.5-14.6l3.8,0.7l-2-2.4l7.2,0.3c-3.8-4.8-8.6-8.5-12.6-13.1c0.7,0.4,1.3,0.8,2,1.1l0.5,0.4
			c0,0,0,0.1,0.1,0.1c0.3,0.4,0.6,0.6,1,0.7l-4.2-3.3l4.8,1.2l-2.5-3l6.7,0.9c-1.6-3-3-6-4.6-8.9c-2-3.4-4.3-6.6-6-10.2
			c0.8,0.7,1.7,1.5,2.5,2.2l13.4,17.6l-14.3-18.8l3.9,1.2l-2.7-2l8.9,1l-4.1-0.5c-2.1-3.5-4.5-6.7-6.8-10c-0.2-1-0.4-2-0.5-3
			c0.2,0.1,0.4,0.3,0.7,0.5l-0.5-0.6l7.8,1.6l-1.3-0.3c-0.1-0.3-0.3-0.5-0.6-0.8c-1.6-1.2-3.3-2.3-5-3.5c-0.7,0.7-1.3,1.5-2,2.2v61
			L544,387.7L544,387.7z"/>
		<path id="XMLID_161_" class="st53" d="M544,387.1v-61c-3.6,4.2-6.7,8.9-9.1,13.9l5.7-0.7l-2.7,2l3.9-1.2l-12.5,16.4
			c-0.1,0.7-0.3,1.5-0.4,2.2l10.6-1.5l-2.5,3l4.8-1.2L528,369.8c0,1.1,0,2.3,0.1,3.4l7.7-0.3l-2,2.4l3.8-0.7L529,381
			c0.4,2.6,1,5.1,1.7,7.5l13.3-0.7V387.1L544,387.1z"/>
		<path id="XMLID_160_" class="st54" d="M551.5,328.1l1.3,0.3l-5.3-6.1c-0.5,0.5-1,1.1-1.6,1.6c1.6,1.2,3.3,2.2,5,3.5
			C551.2,327.5,551.4,327.8,551.5,328.1z"/>
		<path id="XMLID_159_" class="st54" d="M545.4,329.9c2.3,3.3,4.7,6.6,6.8,10l4.1,0.5l-10.8-13l0,0c-0.2-0.1-0.4-0.3-0.7-0.5
			C545.1,327.9,545.2,328.9,545.4,329.9z"/>
		<path id="XMLID_158_" class="st54" d="M549.5,361.6c0,0,0-0.1-0.1-0.1l-0.5-0.4c-0.7-0.3-1.4-0.7-2-1.1c4,4.6,8.8,8.3,12.6,13.1
			l0,0l5.1,0.2l0,0l-8.5-6.6l-5.7-4.4l0,0C550.1,362.3,549.7,362,549.5,361.6z"/>
		<path id="XMLID_157_" class="st54" d="M552.4,376.1c-1.8-1.4-3.7-2.5-5.6-3.6c4.4,5.3,9,10.5,13.1,16.1l10.1,0.5l-17-12.7
			C552.8,376.4,552.6,376.3,552.4,376.1z"/>
		<path id="XMLID_156_" class="st54" d="M544.6,339.1c1.7,3.5,4,6.8,6,10.2c1.7,2.9,3.1,5.9,4.6,8.9l0,0l5.3,0.7l-13.4-17.6
			C546.3,340.6,545.5,339.8,544.6,339.1z"/>
	</g>
	
		<radialGradient id="XMLID_264_" cx="475.3654" cy="517.6914" r="37.6243" gradientTransform="matrix(1.2465 0 0 1.1885 3.3571 -241.0762)" gradientUnits="userSpaceOnUse">
		<stop  offset="0" style="stop-color:#F9EF82"/>
		<stop  offset="0.6289" style="stop-color:#FCC440;stop-opacity:0.3711"/>
		<stop  offset="1" style="stop-color:#2581C4;stop-opacity:0"/>
	</radialGradient>
	<ellipse id="XMLID_154_" class="st55" cx="595.9" cy="374.2" rx="46.5" ry="45.2"/>
</g>
<g id="Layer_18">
	<g id="XMLID_101_">
		<path id="XMLID_102_" class="st1" d="M660.2,388c1.6-5.8,2.5-11.8,2.5-18.1c0-37.2-30.2-67.3-67.3-67.3
			c-37.2,0-67.3,30.1-67.3,67.3c0,6.3,0.9,12.3,2.5,18.1L660.2,388L660.2,388z"/>
		<path id="XMLID_103_" class="st53" d="M595.3,437.3c30.9,0,57-20.9,64.9-49.3H530.5C538.4,416.4,564.4,437.3,595.3,437.3z"/>
	</g>
	<polygon id="XMLID_98_" class="st53" points="569.3,366 561.3,389.5 536.5,389.5 548.3,367.3 	"/>
	<polyline id="XMLID_104_" class="st56" points="580.3,388 569.3,366 561.3,389.5 582,388 	"/>
</g>
<g id="Layer_20">
	<path id="XMLID_123_" class="st56" d="M626.2,374.3l0.1-0.8l1.2-1.6c0,0,0.8-0.7,1.9-0.3c1.1,0.4,1.7,1.5,1.7,2.3l1.6,0.8
		c0,0,1.2-0.1,1.3,0.3l3.7,2.4l2.2,2.4l-0.2,0.8l-2.1,0.9l-0.4,2.1c0,0-0.7,2.1-1.5,2.5s-1.9,0.6-2.3,0.6c0,0,0.2,0.5,0.3,1
		s-0.7,1.4-1,1.5s-10.1,0-10.1,0l-0.5-0.4l-0.8,0.5h-5.7l-0.9-0.9v-1l0.9-0.4l2.5,0.5l0.6-0.3l-1.6-1.6l-0.2-1l0.9-1.3h3.1l4.3,0.7
		l1.3-1.5l-3-0.2l-0.8,0.6l-0.5-0.3l-0.6-0.1l-0.2-0.5l-0.8,0.2v-0.8l-1.3,0.1l-0.4,0.3h-2.2l-0.1-1.3l0.7-0.5h1.8l0.4,0.5l2,0.3
		l0.3-0.4l1.1,0.1l2.8-0.1l0.6-1.4c0,0,0.1-2,0-2.3c-0.1-0.4,0.8-0.7,0.8-0.7"/>
</g>
<g id="Layer_21">
	<path id="XMLID_99_" class="st53" d="M589,389.1h16.4c1,0,1.8-0.8,1.8-1.8l0,0c0-1-0.8-1.8-1.8-1.8H589c-1,0-1.8,0.8-1.8,1.8l0,0
		C587.2,388.3,588,389.1,589,389.1z"/>
</g>
<g id="Layer_22">
	<path id="XMLID_120_" class="st57" d="M592.3,386.1c4.6-0.2,10.7-0.7,14.6,2.1c0.2-0.3,0.3-0.6,0.3-0.9c0-1-0.8-1.8-1.8-1.8H589
		c-0.9,0-1.6,0.6-1.8,1.4C588.8,386.4,590.5,386.2,592.3,386.1z"/>
</g>
<g id="Layer_26">
	
		<radialGradient id="XMLID_265_" cx="476.5687" cy="519.4583" r="37.6695" gradientTransform="matrix(1.2465 0 0 1.1885 3.3571 -241.0762)" gradientUnits="userSpaceOnUse">
		<stop  offset="0" style="stop-color:#F9EF82"/>
		<stop  offset="0.6289" style="stop-color:#FCC440;stop-opacity:0.3711"/>
		<stop  offset="1" style="stop-color:#2581C4;stop-opacity:0"/>
	</radialGradient>
	<ellipse id="XMLID_110_" class="st58" cx="597.4" cy="376.3" rx="46.5" ry="45.2"/>
</g>
<g id="Layer_16">
	<g id="XMLID_58_">
		<path id="XMLID_65_" class="st2" d="M750.8,467c-6.3,0-20.5-8.7-34.3-17c-12.5-7.6-24.9-14.7-26.9-18.3
			c-2.3-4.2-1.5-36.7-1.5-36.7s-1-29.8,1.5-34c3-4.8,16.5-12.6,30.4-20.5c12.8-7.3,25.9-14.8,30.8-14.8c5.1,0,18,8,31.4,15.8
			s27.5,15.3,29.8,19.6c2.5,4.7,2.6,22.8,2.5,39.5c-0.1,13.4,0.4,26-2.8,30.3c-3.4,4.6-14.9,11.3-27.2,19
			C771.3,458,757,467,750.8,467z"/>
		
			<linearGradient id="XMLID_266_" gradientUnits="userSpaceOnUse" x1="744.8694" y1="567.3066" x2="740.8694" y2="646.9733" gradientTransform="matrix(1 0 0 1 0 -170)">
			<stop  offset="0" style="stop-color:#5CB130;stop-opacity:0"/>
			<stop  offset="0.8639" style="stop-color:#1A501F"/>
		</linearGradient>
		<path id="XMLID_64_" class="st59" d="M776.1,439.6c-3.1-3.5-6.1-7.2-8.7-11.3c-1.5-2.3-2.8-4.7-4.8-6.6
			c-9.7-9.7-32.9-2.5-42.4,4.2c-6.7,4.7-12.9,10.4-20.4,14c4.8,3,10.7,6.5,16.6,10.1c13.8,8.3,28,17,34.3,17c5,0,10.3-3.4,14.5-5.7
			c6.3-3.5,14.9-7.2,20-12.2C782.1,445.9,779,442.9,776.1,439.6z"/>
		<path id="XMLID_63_" class="st40" d="M704.5,366.9c17.4,1.6,32.8,5.4,49.3,10.4c14.2,4.3,28.6,8.6,41.6,15.9
			c6.4,3.6,12.3,8,17.5,13.1c0.1-16.2-0.1-33-2.6-37.6c-2.3-4.3-16.3-11.8-29.8-19.6s-26.3-15.8-31.4-15.8c-4.9,0-18,7.5-30.8,14.8
			c-12.2,6.9-24.1,13.8-28.8,18.6C694.4,366.4,699.4,366.4,704.5,366.9z"/>
		
			<linearGradient id="XMLID_267_" gradientUnits="userSpaceOnUse" x1="754.2645" y1="544.4925" x2="767.0558" y2="506.871" gradientTransform="matrix(1 0 0 1 0 -170)">
			<stop  offset="5.250000e-02" style="stop-color:#1CA638"/>
			<stop  offset="0.439" style="stop-color:#1FA538;stop-opacity:0.5921"/>
			<stop  offset="0.7176" style="stop-color:#28A137;stop-opacity:0.2981"/>
			<stop  offset="0.9617" style="stop-color:#329A37;stop-opacity:4.050000e-02"/>
			<stop  offset="1" style="stop-color:#349937;stop-opacity:0"/>
		</linearGradient>
		<path id="XMLID_62_" class="st60" d="M706.1,359.2c17.4,1.6,32.8,5.4,49.3,10.4c14.2,4.3,28.6,8.6,41.6,15.9
			c6.4,3.6,12.3,8,17.5,13.1c0.1-16.2-0.1-33-2.6-37.6c-2.3-4.3-16.3-11.8-29.8-19.6s-26.3-15.8-31.4-15.8c-4.9,0-18,7.5-30.8,14.8
			c-12.2,6.9-24.1,13.8-28.8,18.6C696.1,358.7,701.1,358.7,706.1,359.2z"/>
		
			<linearGradient id="XMLID_268_" gradientUnits="userSpaceOnUse" x1="780.9874" y1="520.5655" x2="775.0795" y2="638.2306" gradientTransform="matrix(1 0 0 1 0 -170)">
			<stop  offset="0.1361" style="stop-color:#246529"/>
			<stop  offset="0.5313" style="stop-color:#256629;stop-opacity:0.5425"/>
			<stop  offset="0.6737" style="stop-color:#286B2A;stop-opacity:0.3777"/>
			<stop  offset="0.7752" style="stop-color:#2F742C;stop-opacity:0.2602"/>
			<stop  offset="0.8573" style="stop-color:#39822E;stop-opacity:0.1652"/>
			<stop  offset="0.9276" style="stop-color:#469330;stop-opacity:8.380000e-02"/>
			<stop  offset="0.9887" style="stop-color:#58AB30;stop-opacity:1.310000e-02"/>
			<stop  offset="1" style="stop-color:#5CB130;stop-opacity:0"/>
		</linearGradient>
		<path id="XMLID_61_" class="st61" d="M812,361c-1.3-2.3-6.1-5.7-12.4-9.5c0.1,0.3,0.2,0.6,0.3,0.9c11.5,21.8,6.7,53.3-6.6,73.3
			c-6.2,9.4-14.6,17.1-24.1,23.1c-9.8,6.2-20.3,9-30.6,13.5c2,2.5,8.7,4.7,12.2,4.7c6.2,0,20.5-9,33.8-17.3
			c12.3-7.7,23.8-14.4,27.2-19c3.1-4.2,2.7-16.8,2.8-30.3C814.6,383.8,814.5,365.7,812,361z"/>
		
			<linearGradient id="XMLID_269_" gradientUnits="userSpaceOnUse" x1="731.6031" y1="529.5209" x2="714.2698" y2="498.8542" gradientTransform="matrix(1 0 0 1 0 -170)">
			<stop  offset="5.250000e-02" style="stop-color:#51AF42;stop-opacity:0.5"/>
			<stop  offset="0.439" style="stop-color:#4EAD41;stop-opacity:0.2961"/>
			<stop  offset="0.7176" style="stop-color:#46A63D;stop-opacity:0.149"/>
			<stop  offset="0.9617" style="stop-color:#379B38;stop-opacity:2.020000e-02"/>
			<stop  offset="1" style="stop-color:#349937;stop-opacity:0"/>
		</linearGradient>
		<path id="XMLID_60_" class="st62" d="M689.2,388.1c11.6-19.1,28.8-31.9,50-38.3c8.6-2.6,18-4,26.8-5.5c5.6-1,11.2-1.8,16.8-2.4
			c-0.2-0.1-0.4-0.2-0.6-0.4c-13.5-7.8-26.3-15.8-31.4-15.8c-4.9,0-18,7.5-30.8,14.8c-13.8,7.9-27.4,15.7-30.4,20.5
			c-2,3.2-1.8,20.9-1.7,29.4C688.3,389.6,688.8,388.9,689.2,388.1z"/>
		
			<linearGradient id="XMLID_270_" gradientUnits="userSpaceOnUse" x1="715.6528" y1="527.8458" x2="707.3196" y2="510.5123" gradientTransform="matrix(1 0 0 1 0 -170)">
			<stop  offset="5.250000e-02" style="stop-color:#6DB757;stop-opacity:0.5"/>
			<stop  offset="0.3807" style="stop-color:#6AB654;stop-opacity:0.3268"/>
			<stop  offset="0.6173" style="stop-color:#60AF4D;stop-opacity:0.2019"/>
			<stop  offset="0.8245" style="stop-color:#4EA543;stop-opacity:9.260000e-02"/>
			<stop  offset="1" style="stop-color:#349937;stop-opacity:0"/>
		</linearGradient>
		<path id="XMLID_59_" class="st63" d="M714.5,354.1c1.4-1.1,2.8-2.1,4.3-3.1c6.6-4.7,13.5-8.9,20.5-12.8c3.5-1.9,7.2-3.8,10.8-5.5
			c1.2-0.6,8.3-4.6,9.6-4c-3.8-1.9-7-3.1-9-3.1c-4.9,0-18,7.5-30.8,14.8c-13.8,7.9-27.4,15.7-30.4,20.5c-2.6,4.2-1.5,34-1.5,34
			c-0.2,8.8-0.1,17.6,0.1,26.4c1.7-9.8,2.7-19.7,4.6-29.5c1.9-10,5.2-20.1,11.5-28.1C707.2,360.2,710.8,357,714.5,354.1z"/>
	</g>
	<g id="XMLID_69_">
		<path id="XMLID_67_" class="st65" d="M749.8,358v40.6h5.7v-33.8C755.5,364.8,755.3,358.2,749.8,358z"/>
		<path id="XMLID_68_" class="st65" d="M749.8,358v40.6h-5.7v-33.8C744.2,364.8,744.4,358.2,749.8,358z"/>
	</g>
	<g id="XMLID_70_">
		<path id="XMLID_72_" class="st65" d="M731,373.5v25h5.7v-20.8C736.7,377.8,736.4,373.7,731,373.5z"/>
		<path id="XMLID_71_" class="st65" d="M731,373.5v25h-5.7v-20.8C725.3,377.8,725.6,373.7,731,373.5z"/>
	</g>
</g>
<g id="Layer_29" class="st32">
	<circle id="XMLID_124_" class="st66" cx="545.3" cy="410" r="67.3"/>
</g>
<g id="Layer_17">
	<g id="XMLID_252_">
		<path id="XMLID_254_" class="st65" d="M712.6,398.6h5.7v-11.3c0,0,0-3.3-5.7-3.2"/>
		<path id="XMLID_253_" class="st65" d="M712.6,398.6h-5.7v-11.3c0,0,0-3.3,5.7-3.2"/>
	</g>
	<g id="XMLID_249_">
		<path id="XMLID_251_" class="st65" d="M749.8,439.2v-40.6h5.7v33.8C755.5,432.4,755.3,439,749.8,439.2z"/>
		<path id="XMLID_250_" class="st65" d="M749.8,439.2v-40.6h-5.7v33.8C744.2,432.4,744.4,439,749.8,439.2z"/>
	</g>
	<g id="XMLID_246_">
		<path id="XMLID_248_" class="st65" d="M731,423.6v-25h5.7v20.8C736.7,419.4,736.4,423.5,731,423.6z"/>
		<path id="XMLID_247_" class="st65" d="M731,423.6v-25h-5.7v20.8C725.3,419.4,725.6,423.5,731,423.6z"/>
	</g>
	<g id="XMLID_243_">
		<path id="XMLID_245_" class="st65" d="M712.6,398.6h5.7v11.3c0,0,0,3.3-5.7,3.2"/>
		<path id="XMLID_244_" class="st65" d="M712.6,398.6h-5.7v11.3c0,0,0,3.3,5.7,3.2"/>
	</g>
	<g id="XMLID_240_">
		<path id="XMLID_242_" class="st65" d="M768.5,373.5v25h-5.7v-20.8C762.8,377.8,763,373.7,768.5,373.5z"/>
		<path id="XMLID_241_" class="st65" d="M768.5,373.5v25h5.7v-20.8C774.1,377.8,773.9,373.7,768.5,373.5z"/>
	</g>
	<g id="XMLID_237_">
		<path id="XMLID_239_" class="st65" d="M786.9,398.6h-5.7v-11.3c0,0,0-3.3,5.7-3.2"/>
		<path id="XMLID_238_" class="st65" d="M786.9,398.6h5.7v-11.3c0,0,0-3.3-5.7-3.2"/>
	</g>
	<g id="XMLID_234_">
		<path id="XMLID_236_" class="st65" d="M768.5,423.6v-25h-5.7v20.8C762.8,419.4,763,423.5,768.5,423.6z"/>
		<path id="XMLID_235_" class="st65" d="M768.5,423.6v-25h5.7v20.8C774.1,419.4,773.9,423.5,768.5,423.6z"/>
	</g>
	<g id="XMLID_231_">
		<path id="XMLID_233_" class="st65" d="M786.9,398.6h-5.7v11.3c0,0,0,3.3,5.7,3.2"/>
		<path id="XMLID_232_" class="st65" d="M786.9,398.6h5.7v11.3c0,0,0,3.3-5.7,3.2"/>
	</g>
	<line id="XMLID_230_" class="st67" x1="687.9" y1="398.9" x2="814.5" y2="398.6"/>
	<g id="XMLID_127_">
		<path id="XMLID_151_" class="st65" d="M594.6,44.8v40.6h5.7V51.6C600.3,51.6,600,45,594.6,44.8z"/>
		<path id="XMLID_129_" class="st65" d="M594.6,44.8v40.6h-5.7V51.6C588.9,51.6,589.2,45,594.6,44.8z"/>
	</g>
	<g id="XMLID_121_">
		<path id="XMLID_126_" class="st65" d="M575.8,60.3v25h5.7V64.6C581.4,64.6,581.2,60.5,575.8,60.3z"/>
		<path id="XMLID_122_" class="st65" d="M575.8,60.3v25h-5.7V64.6C570.1,64.6,570.3,60.5,575.8,60.3z"/>
	</g>
	<g id="XMLID_88_">
		<path id="XMLID_119_" class="st65" d="M557.3,85.4h5.7V74.1c0,0,0-3.3-5.7-3.2"/>
		<path id="XMLID_118_" class="st65" d="M557.3,85.4h-5.7V74.1c0,0,0-3.3,5.7-3.2"/>
	</g>
	<g id="XMLID_85_">
		<path id="XMLID_87_" class="st65" d="M594.6,126V85.4h5.7v33.8C600.3,119.2,600,125.8,594.6,126z"/>
		<path id="XMLID_86_" class="st65" d="M594.6,126V85.4h-5.7v33.8C588.9,119.2,589.2,125.8,594.6,126z"/>
	</g>
	<g id="XMLID_82_">
		<path id="XMLID_84_" class="st65" d="M575.8,110.4v-25h5.7v20.8C581.4,106.2,581.2,110.3,575.8,110.4z"/>
		<path id="XMLID_83_" class="st65" d="M575.8,110.4v-25h-5.7v20.8C570.1,106.2,570.3,110.3,575.8,110.4z"/>
	</g>
	<g id="XMLID_79_">
		<path id="XMLID_81_" class="st65" d="M557.3,85.4h5.7v11.3c0,0,0,3.3-5.7,3.2"/>
		<path id="XMLID_80_" class="st65" d="M557.3,85.4h-5.7v11.3c0,0,0,3.3,5.7,3.2"/>
	</g>
	<g id="XMLID_76_">
		<path id="XMLID_78_" class="st65" d="M613.2,60.3v25h-5.7V64.6C607.5,64.6,607.8,60.5,613.2,60.3z"/>
		<path id="XMLID_77_" class="st65" d="M613.2,60.3v25h5.7V64.6C618.9,64.6,618.6,60.5,613.2,60.3z"/>
	</g>
	<g id="XMLID_73_">
		<path id="XMLID_75_" class="st65" d="M631.6,85.4H626V74.1c0,0,0-3.3,5.7-3.2"/>
		<path id="XMLID_74_" class="st65" d="M631.6,85.4h5.7V74.1c0,0,0-3.3-5.7-3.2"/>
	</g>
	<g id="XMLID_47_">
		<path id="XMLID_49_" class="st65" d="M613.2,110.4v-25h-5.7v20.8C607.5,106.2,607.8,110.3,613.2,110.4z"/>
		<path id="XMLID_48_" class="st65" d="M613.2,110.4v-25h5.7v20.8C618.9,106.2,618.6,110.3,613.2,110.4z"/>
	</g>
	<g id="XMLID_44_">
		<path id="XMLID_46_" class="st65" d="M631.6,85.4H626v11.3c0,0,0,3.3,5.7,3.2"/>
		<path id="XMLID_45_" class="st65" d="M631.6,85.4h5.7v11.3c0,0,0,3.3-5.7,3.2"/>
	</g>
	<line id="XMLID_42_" class="st67" x1="534.9" y1="85.7" x2="653.7" y2="85.2"/>
</g>
<g id="Layer_27">
	<circle id="XMLID_117_" class="st68" cx="596" cy="370.9" r="44.5"/>
	<circle id="XMLID_116_" class="st69" cx="595.7" cy="371.2" r="36.2"/>
	<circle id="XMLID_115_" class="st69" cx="595.8" cy="370.9" r="52.8"/>
	<line id="XMLID_113_" class="st69" x1="576.1" y1="434.2" x2="574" y2="306"/>
	<line id="XMLID_112_" class="st69" x1="581" y1="304" x2="583" y2="435.9"/>
	<line id="XMLID_111_" class="st69" x1="590" y1="437" x2="587.9" y2="302.8"/>
	<line id="XMLID_109_" class="st69" x1="595" y1="302.3" x2="596.9" y2="437.3"/>
	<line id="XMLID_108_" class="st69" x1="604.8" y1="436.5" x2="602.7" y2="302.8"/>
	<line id="XMLID_107_" class="st69" x1="609.7" y1="304.1" x2="611.7" y2="435"/>
	<polygon id="XMLID_105_" class="st65" points="608.7,304.1 608.7,303.6 610.7,304.1 610.4,304.7 	"/>
	<polygon id="XMLID_100_" class="st65" points="601.7,302.9 603.7,302.8 603.5,302.8 602.4,302.6 601.7,302.5 	"/>
	<polygon id="XMLID_97_" class="st65" points="603.3,302.7 603.7,303.1 603.7,302.8 	"/>
	<polygon id="XMLID_96_" class="st65" points="588.9,302.8 586.9,302.8 587.8,302.7 588.8,302.6 588.9,302.6 	"/>
	<polygon id="XMLID_95_" class="st65" points="582,304 582,303.6 581,303.8 580.3,303.9 580,304 580.3,304.1 582,304.1 	"/>
	<polygon id="XMLID_94_" class="st65" points="575,306 575,305.4 573,306 573,306.1 574.9,306.1 	"/>
	<path id="XMLID_93_" class="st65" d="M603.8,436.5v0.3l0.9-0.1l0.8-0.1h0.3l0,0l-1.4-0.2C604.3,436.3,603.8,436.5,603.8,436.5z"/>
	<polygon id="XMLID_92_" class="st65" points="610.7,435 610.7,435.5 611.6,435.3 612,435.2 612.6,435 612.7,435 612.1,434.8 	"/>
	<polygon id="XMLID_91_" class="st65" points="591,436.8 591,437.1 590,437.1 589,437 589.1,436.7 591,436.5 	"/>
	<polygon id="XMLID_90_" class="st65" points="584,435.9 584,436.3 583.5,436.2 582.9,436.1 582.3,436 582,436 582,435.8 
		583.7,435.7 	"/>
	<polygon id="XMLID_89_" class="st65" points="577.1,434 577.1,434.8 575.9,434.5 575.1,434.2 575.5,433.7 	"/>
</g>
<g id="Layer_15">
	<ellipse id="XMLID_51_" class="st70" cx="751.2" cy="244.6" rx="3.8" ry="42"/>
	<ellipse id="XMLID_52_" class="st70" cx="733.8" cy="248.2" rx="3.8" ry="25.5"/>
	<ellipse id="XMLID_53_" class="st71" cx="718.5" cy="246" rx="3.2" ry="10.7"/>
	<ellipse id="XMLID_54_" class="st72" cx="703.8" cy="245.4" rx="3.2" ry="3.8"/>
	<ellipse id="XMLID_55_" class="st70" cx="767.8" cy="246.5" rx="5.2" ry="21.8"/>
	<ellipse id="XMLID_56_" class="st71" cx="785.6" cy="245.3" rx="2.1" ry="10"/>
	<ellipse id="XMLID_57_" class="st72" cx="799.3" cy="244.6" rx="3.2" ry="3.8"/>
	<ellipse id="XMLID_184_" class="st70" cx="595.6" cy="525.5" rx="3.8" ry="42"/>
	<ellipse id="XMLID_181_" class="st70" cx="578.3" cy="529" rx="3.8" ry="25.5"/>
	<ellipse id="XMLID_180_" class="st71" cx="563" cy="526.9" rx="3.2" ry="10.7"/>
	<ellipse id="XMLID_179_" class="st72" cx="548.3" cy="526.3" rx="3.2" ry="3.8"/>
	<ellipse id="XMLID_178_" class="st70" cx="612.3" cy="527.4" rx="5.2" ry="21.8"/>
	<ellipse id="XMLID_153_" class="st71" cx="630" cy="526.2" rx="2.1" ry="10"/>
	<ellipse id="XMLID_152_" class="st72" cx="643.7" cy="525.5" rx="3.2" ry="3.8"/>
</g>
<g id="Layer_13">
	<path id="XMLID_39_" class="st64" d="M813.5,86.8h-1.6c0,0-8.4,0-13.1,0s-6.3-4.4-6.3-4.4c-1.1-3.3-2.8-11.4-7.7-10.2
		c-1.6,0.4-2.8,1.6-3.6,3.1c-2.7,5-1.9,11.2-5,16.2c-0.7,1.2-1.9,2.2-3.3,2.3c-1.5,0.1-2.8-1-3.5-2.3c-1-1.8-1-4.1-1.3-6.2
		c-0.3-3-0.7-6.1-1-9.1c-0.6-6.1-1.2-12.2-2.1-18.2c-0.4-2.8-0.6-7-3.5-8.5c-2-1.1-4.5-0.2-6,1.5s-2.1,3.9-2.6,6.1
		c-0.9,4.4-1,8.8-1.5,13.3c-0.3,3.9-0.7,7.7-1.1,11.6c-0.4,4.5-0.7,9.1-1.3,13.6c-0.4,3.2-0.5,6.8-2.3,9.6c-0.7,1.1-1.8,1.9-3,2
		c-1.5,0.1-3-0.9-3.8-2.3c-1.6-2.8-1.6-6.4-2-9.5c-0.4-3.4-0.7-6.9-1.2-10.3c-0.4-2.8-0.9-5.5-1.5-8.2c-0.5-2.4-1.2-4.9-3-6.7
		c-1.1-1.1-2.7-1.7-4.2-1.2c-1.4,0.5-2.3,1.9-2.7,3.3c-1,3.3-1.5,6.8-2.1,10.2c-0.5,3-0.9,6-1.8,8.9c-0.8,2.9-2.1,7.8-5.9,7.5
		c-1.9-0.1-3.3-1.7-4.1-3.3c-1.8-3.3-1.7-7.4-3.9-10.7c-2.2-3.4-6.7-3.6-6.7-3.6H687h0"/>
	<g id="XMLID_15_">
		
			<image style="overflow:visible;opacity:0.75;enable-background:new    ;" width="583" height="317" xlink:href="87B928FA.png"  transform="matrix(0.2355 0 0 0.2355 522.5003 189.9761)">
		</image>
		<g>
			
				<linearGradient id="SVGID_19_" gradientUnits="userSpaceOnUse" x1="654.7" y1="394.5818" x2="533.1801" y2="394.5818" gradientTransform="matrix(1 0 0 1 0 -170)">
				<stop  offset="7.020000e-02" style="stop-color:#E9EDE6"/>
				<stop  offset="1" style="stop-color:#7D827C"/>
			</linearGradient>
			<path style="fill:none;stroke:url(#SVGID_19_);stroke-width:5;stroke-miterlimit:10;" d="M653.7,232.4h-1.5c0,0-7.8,0-12.3,0
				s-5.8-4-5.8-4c-1.1-2.9-2.6-10.3-7.2-9.1c-1.5,0.4-2.6,1.5-3.3,2.8c-2.5,4.5-1.8,10.1-4.6,14.6c-0.7,1.1-1.8,2-3.1,2.1
				c-1.4,0.1-2.7-0.9-3.3-2.1c-0.9-1.7-1-3.7-1.2-5.5c-0.3-2.7-0.6-5.5-0.9-8.2c-0.6-5.5-1.1-11-2-16.4c-0.4-2.5-0.6-6.3-3.2-7.7
				c-1.8-1-4.2-0.2-5.6,1.3c-1.4,1.5-2,3.5-2.4,5.5c-0.8,4-1,8-1.3,12c-0.3,3.5-0.7,7-1,10.4c-0.4,4.1-0.7,8.2-1.2,12.2
				c-0.4,2.9-0.4,6.1-2.2,8.6c-0.6,0.9-1.7,1.7-2.8,1.8c-1.4,0.1-2.8-0.8-3.5-2.1c-1.5-2.5-1.5-5.7-1.8-8.6
				c-0.3-3.1-0.6-6.2-1.1-9.3c-0.4-2.5-0.9-5-1.4-7.4c-0.5-2.2-1.1-4.4-2.8-6c-1-1-2.5-1.6-3.9-1.1c-1.3,0.4-2.1,1.7-2.5,2.9
				c-1,2.9-1.4,6.1-2,9.2c-0.5,2.7-0.9,5.4-1.7,8s-1.9,7-5.5,6.8c-1.8-0.1-3.1-1.6-3.9-3c-1.7-3-1.6-6.7-3.6-9.6
				c-2.1-3.1-6.3-3.2-6.3-3.2H536h-0.3"/>
		</g>
	</g>
	<path id="XMLID_38_" class="st75" d="M128,355.8h-1.2c0,0-6.1,0-9.5,0s-4.5-3.2-4.5-3.2c-0.8-2.4-2-8.2-5.6-7.3
		c-1.1,0.3-2,1.2-2.6,2.2c-1.9,3.6-1.4,8.1-3.6,11.7c-0.5,0.9-1.4,1.6-2.4,1.6c-1.1,0-2.1-0.7-2.6-1.7c-0.7-1.3-0.8-3-0.9-4.4
		c-0.3-2.2-0.5-4.4-0.7-6.6c-0.4-4.4-0.9-8.8-1.5-13.2c-0.3-2-0.4-5-2.5-6.2c-1.4-0.8-3.3-0.1-4.3,1.1c-1.1,1.2-1.5,2.8-1.8,4.4
		c-0.7,3.2-0.8,6.4-1.1,9.6c-0.3,2.8-0.5,5.6-0.8,8.4c-0.3,3.3-0.5,6.5-0.9,9.8c-0.3,2.3-0.3,4.9-1.7,6.9c-0.5,0.8-1.3,1.4-2.2,1.5
		c-1.1,0.1-2.2-0.7-2.7-1.6c-1.2-2-1.2-4.6-1.4-6.9c-0.3-2.5-0.5-5-0.9-7.4c-0.3-2-0.7-4-1.1-6c-0.4-1.7-0.9-3.5-2.2-4.8
		c-0.8-0.8-2-1.3-3-0.9c-1,0.3-1.7,1.4-2,2.4c-0.8,2.4-1.1,4.9-1.5,7.3c-0.4,2.1-0.7,4.3-1.3,6.4s-1.5,5.6-4.3,5.4
		c-1.4-0.1-2.4-1.3-3-2.4c-1.3-2.4-1.2-5.4-2.8-7.7c-1.6-2.5-4.9-2.6-4.9-2.6h-9.9h-0.2"/>
</g>
<g id="Layer_31">
	<g id="XMLID_27_">
		<g class="st76">
			<path class="st77" d="M652,232.4h-1.5c0,0-7.7,0-12.1,0s-5.8-4-5.8-4c-1-2.9-2.5-10.3-7.2-9.1c-1.5,0.4-2.6,1.5-3.3,2.8
				c-2.5,4.5-1.8,10.1-4.6,14.6c-0.7,1.1-1.8,2-3.1,2.1c-1.4,0.1-2.6-0.9-3.3-2.1c-0.9-1.7-1-3.7-1.2-5.5c-0.3-2.7-0.6-5.5-0.9-8.2
				c-0.6-5.5-1.1-11-2-16.4c-0.4-2.5-0.6-6.3-3.2-7.7c-1.8-1-4.2-0.2-5.6,1.3s-2,3.5-2.4,5.5c-0.8,4-1,8-1.3,12
				c-0.3,3.5-0.7,7-1,10.4c-0.4,4.1-0.7,8.2-1.2,12.2c-0.4,2.9-0.4,6.1-2.1,8.6c-0.6,0.9-1.6,1.7-2.8,1.8c-1.4,0.1-2.8-0.8-3.5-2.1
				c-1.5-2.5-1.5-5.7-1.8-8.6c-0.3-3.1-0.6-6.2-1.1-9.3c-0.4-2.5-0.9-5-1.4-7.4c-0.5-2.2-1.1-4.4-2.8-6c-1-1-2.5-1.6-3.8-1.1
				c-1.3,0.4-2.1,1.7-2.5,2.9c-1,2.9-1.4,6.1-1.9,9.2c-0.5,2.7-0.8,5.4-1.6,8s-1.9,7-5.5,6.8c-1.7-0.1-3-1.6-3.8-3
				c-1.7-3-1.6-6.7-3.6-9.6c-2.1-3.1-6.2-3.2-6.2-3.2h-12.7H535"/>
		</g>
		<g>
			
				<linearGradient id="SVGID_20_" gradientUnits="userSpaceOnUse" x1="655.8" y1="394.5818" x2="535.5001" y2="394.5818" gradientTransform="matrix(1 0 0 1 0 -170)">
				<stop  offset="7.020000e-02" style="stop-color:#E9EDE6"/>
				<stop  offset="1" style="stop-color:#FFFFFF"/>
			</linearGradient>
			<path class="st74" d="M654.8,232.4h-1.5c0,0-7.7,0-12.1,0s-5.8-4-5.8-4c-1-2.9-2.5-10.3-7.2-9.1c-1.5,0.4-2.6,1.5-3.3,2.8
				c-2.5,4.5-1.8,10.1-4.6,14.6c-0.7,1.1-1.8,2-3.1,2.1c-1.4,0.1-2.6-0.9-3.3-2.1c-0.9-1.7-1-3.7-1.2-5.5c-0.3-2.7-0.6-5.5-0.9-8.2
				c-0.6-5.5-1.1-11-2-16.4c-0.4-2.5-0.6-6.3-3.2-7.7c-1.8-1-4.2-0.2-5.6,1.3s-2,3.5-2.4,5.5c-0.8,4-1,8-1.3,12
				c-0.3,3.5-0.7,7-1,10.4c-0.4,4.1-0.7,8.2-1.2,12.2c-0.4,2.9-0.4,6.1-2.1,8.6c-0.6,0.9-1.6,1.7-2.8,1.8c-1.4,0.1-2.8-0.8-3.5-2.1
				c-1.5-2.5-1.5-5.7-1.8-8.6c-0.3-3.1-0.6-6.2-1.1-9.3c-0.4-2.5-0.9-5-1.4-7.4c-0.5-2.2-1.1-4.4-2.8-6c-1-1-2.5-1.6-3.8-1.1
				c-1.3,0.4-2.1,1.7-2.5,2.9c-1,2.9-1.4,6.1-1.9,9.2c-0.5,2.7-0.8,5.4-1.6,8s-1.9,7-5.5,6.8c-1.7-0.1-3-1.6-3.8-3
				c-1.7-3-1.6-6.7-3.6-9.6c-2.1-3.1-6.2-3.2-6.2-3.2H538h-0.3"/>
		</g>
	</g>
	<g>
		<g id="XMLID_258_">
			
				<image style="overflow:visible;opacity:0.75;enable-background:new    ;" width="483" height="267" xlink:href="87B928F8.png"  transform="matrix(0.2373 0 0 0.2373 21.7873 408.1361)">
			</image>
			<g>
				
					<linearGradient id="SVGID_21_" gradientUnits="userSpaceOnUse" x1="130.8" y1="606.7819" x2="32.9" y2="606.7819" gradientTransform="matrix(1 0 0 1 0 -170)">
					<stop  offset="7.020000e-02" style="stop-color:#E9EDE6"/>
					<stop  offset="1" style="stop-color:#7D827C"/>
				</linearGradient>
				<path style="fill:none;stroke:url(#SVGID_21_);stroke-width:5;stroke-linecap:round;stroke-miterlimit:10;" d="M128.3,443.1
					h-1.2c0,0-6.1,0-9.6,0s-4.6-3.1-4.6-3.1c-0.8-2.3-2-8.1-5.7-7.2c-1.2,0.3-2.1,1.1-2.6,2.2c-2,3.6-1.4,7.9-3.6,11.5
					c-0.5,0.8-1.4,1.6-2.4,1.6c-1.1,0-2.1-0.7-2.6-1.7c-0.7-1.3-0.8-2.9-0.9-4.4c-0.3-2.1-0.5-4.3-0.7-6.5
					c-0.4-4.3-0.9-8.6-1.6-12.9c-0.3-2-0.4-4.9-2.5-6c-1.4-0.8-3.3-0.1-4.4,1s-1.6,2.8-1.9,4.3c-0.7,3.1-0.8,6.3-1.1,9.4
					c-0.3,2.7-0.5,5.5-0.8,8.2c-0.3,3.2-0.5,6.4-1,9.6c-0.3,2.3-0.3,4.8-1.7,6.8c-0.5,0.7-1.3,1.4-2.2,1.4c-1.1,0.1-2.2-0.7-2.8-1.6
					c-1.2-2-1.2-4.5-1.4-6.8c-0.3-2.4-0.5-4.9-0.9-7.3c-0.3-2-0.7-3.9-1.1-5.8c-0.4-1.7-0.9-3.5-2.2-4.7c-0.8-0.8-2-1.2-3-0.9
					c-1,0.3-1.7,1.3-2,2.3c-0.8,2.3-1.1,4.8-1.5,7.2c-0.4,2.1-0.7,4.3-1.3,6.3s-1.5,5.5-4.4,5.3c-1.4-0.1-2.4-1.2-3-2.3
					c-1.3-2.4-1.3-5.3-2.8-7.6c-1.7-2.4-5-2.5-5-2.5H35.6h-0.2"/>
			</g>
		</g>
		<g id="XMLID_257_">
			<g class="st76">
				<path class="st80" d="M126.3,443.1h-1.2c0,0-6.1,0-9.5,0S111,440,111,440c-0.8-2.3-2-8.1-5.6-7.2c-1.1,0.3-2.1,1.1-2.6,2.2
					c-1.9,3.6-1.4,7.9-3.6,11.5c-0.5,0.8-1.4,1.6-2.4,1.6c-1.1,0-2.1-0.7-2.6-1.7c-0.7-1.3-0.8-2.9-0.9-4.4
					c-0.3-2.1-0.5-4.3-0.7-6.5c-0.4-4.3-0.9-8.6-1.5-12.9c-0.3-2-0.4-4.9-2.5-6c-1.4-0.8-3.3-0.1-4.4,1s-1.5,2.8-1.9,4.3
					c-0.7,3.1-0.8,6.3-1.1,9.4c-0.3,2.7-0.5,5.5-0.8,8.2c-0.3,3.2-0.5,6.4-0.9,9.6c-0.3,2.3-0.3,4.8-1.7,6.8
					c-0.5,0.7-1.3,1.4-2.2,1.4c-1.1,0.1-2.2-0.7-2.7-1.6c-1.2-2-1.2-4.5-1.4-6.8c-0.3-2.4-0.5-4.9-0.9-7.3c-0.3-2-0.7-3.9-1.1-5.8
					c-0.4-1.7-0.9-3.5-2.2-4.7c-0.8-0.8-2-1.2-3-0.9c-1,0.3-1.7,1.3-2,2.3c-0.8,2.3-1.1,4.8-1.5,7.2c-0.4,2.1-0.7,4.3-1.3,6.3
					s-1.5,5.5-4.3,5.3c-1.4-0.1-2.4-1.2-3-2.3c-1.3-2.4-1.3-5.3-2.8-7.6c-1.6-2.4-4.9-2.5-4.9-2.5h-10h-0.2"/>
			</g>
			<g>
				
					<linearGradient id="SVGID_22_" gradientUnits="userSpaceOnUse" x1="131.6" y1="606.7819" x2="34.7" y2="606.7819" gradientTransform="matrix(1 0 0 1 0 -170)">
					<stop  offset="7.020000e-02" style="stop-color:#E9EDE6"/>
					<stop  offset="1" style="stop-color:#FFFFFF"/>
				</linearGradient>
				<path class="st79" d="M129.1,443.1h-1.2c0,0-6.1,0-9.5,0s-4.5-3.1-4.5-3.1c-0.8-2.3-2-8.1-5.6-7.2c-1.1,0.3-2.1,1.1-2.6,2.2
					c-1.9,3.6-1.4,7.9-3.6,11.5c-0.5,0.8-1.4,1.6-2.4,1.6c-1.1,0-2.1-0.7-2.6-1.7c-0.7-1.3-0.8-2.9-0.9-4.4
					c-0.3-2.1-0.5-4.3-0.7-6.5c-0.4-4.3-0.9-8.6-1.5-12.9c-0.3-2-0.4-4.9-2.5-6c-1.4-0.8-3.3-0.1-4.4,1s-1.5,2.8-1.9,4.3
					c-0.7,3.1-0.8,6.3-1.1,9.4c-0.3,2.7-0.5,5.5-0.8,8.2c-0.3,3.2-0.5,6.4-0.9,9.6c-0.3,2.3-0.3,4.8-1.7,6.8
					c-0.5,0.7-1.3,1.4-2.2,1.4c-1.1,0.1-2.2-0.7-2.7-1.6c-1.2-2-1.2-4.5-1.4-6.8c-0.3-2.4-0.5-4.9-0.9-7.3c-0.3-2-0.7-3.9-1.1-5.8
					c-0.4-1.7-0.9-3.5-2.2-4.7c-0.8-0.8-2-1.2-3-0.9c-1,0.3-1.7,1.3-2,2.3c-0.8,2.3-1.1,4.8-1.5,7.2c-0.4,2.1-0.7,4.3-1.3,6.3
					s-1.5,5.5-4.3,5.3c-1.4-0.1-2.4-1.2-3-2.3c-1.3-2.4-1.3-5.3-2.8-7.6c-1.6-2.4-4.9-2.5-4.9-2.5h-10h-0.2"/>
			</g>
		</g>
	</g>
	<rect x="137.2" y="338.5" class="st1" width="224.9" height="33.9"/>
	<text transform="matrix(1 0 0 1 137.2173 363.5811)" class="st65 st82 st83">SNAPSNARE</text>
	<g>
		
			<image style="overflow:visible;opacity:0.75;enable-background:new    ;" width="1083" height="317" xlink:href="9DC2EA2D.png"  transform="matrix(0.2392 0 0 0.2392 114.5621 406.1121)">
		</image>
		<g>
			<rect x="137.2" y="425.4" class="st1" width="224.9" height="33.9"/>
			<text transform="matrix(1 0 0 1 137.2173 450.4816)" class="st65 st82 st83">SNAPSNARE</text>
			<g>
				
					<linearGradient id="SVGID_23_" gradientUnits="userSpaceOnUse" x1="351.1625" y1="606.6783" x2="138.4001" y2="608.069" gradientTransform="matrix(1 0 0 1 0 -170)">
					<stop  offset="7.020000e-02" style="stop-color:#DADADA;stop-opacity:0.7"/>
					<stop  offset="0.7923" style="stop-color:#7D827C"/>
				</linearGradient>
				<path style="fill:url(#SVGID_23_);" d="M138.8,442.4l3.1-0.3c0.1,1.3,0.5,2.3,1,3.1s1.4,1.5,2.5,2s2.4,0.7,3.9,0.7
					c1.3,0,2.4-0.2,3.4-0.6s1.7-0.9,2.2-1.5s0.7-1.4,0.7-2.1c0-0.8-0.2-1.5-0.7-2.1s-1.2-1.1-2.3-1.5c-0.7-0.3-2.2-0.7-4.5-1.2
					s-3.9-1.1-4.8-1.6c-1.2-0.6-2.1-1.4-2.7-2.3c-0.6-0.9-0.9-2-0.9-3.1c0-1.3,0.4-2.5,1.1-3.5c0.7-1.1,1.8-1.9,3.1-2.5
					c1.4-0.6,2.9-0.9,4.6-0.9c1.9,0,3.5,0.3,4.9,0.9s2.5,1.5,3.3,2.6c0.8,1.2,1.2,2.5,1.2,4l-3.2,0.2c-0.2-1.6-0.8-2.8-1.7-3.6
					c-1-0.8-2.4-1.2-4.4-1.2s-3.5,0.4-4.4,1.1s-1.4,1.6-1.4,2.7c0,0.9,0.3,1.6,1,2.2c0.6,0.6,2.3,1.2,5,1.8c2.7,0.6,4.5,1.1,5.6,1.6
					c1.5,0.7,2.5,1.5,3.2,2.5s1,2.2,1,3.6c0,1.3-0.4,2.6-1.1,3.8c-0.8,1.2-1.9,2.1-3.3,2.8c-1.4,0.7-3,1-4.8,1c-2.3,0-4.2-0.3-5.7-1
					s-2.7-1.6-3.6-3C139.3,445.6,138.8,444.1,138.8,442.4z"/>
				
					<linearGradient id="SVGID_24_" gradientUnits="userSpaceOnUse" x1="351.1635" y1="606.8362" x2="138.4012" y2="608.2268" gradientTransform="matrix(1 0 0 1 0 -170)">
					<stop  offset="7.020000e-02" style="stop-color:#DADADA;stop-opacity:0.7"/>
					<stop  offset="0.7923" style="stop-color:#7D827C"/>
				</linearGradient>
				<path class="st84" d="M163.2,450.5v-25h3.4l13.2,19.7v-19.7h3.2v25h-3.4l-13.2-19.7v19.7H163.2z"/>
				
					<linearGradient id="SVGID_25_" gradientUnits="userSpaceOnUse" x1="351.1648" y1="607.0273" x2="138.4025" y2="608.418" gradientTransform="matrix(1 0 0 1 0 -170)">
					<stop  offset="7.020000e-02" style="stop-color:#DADADA;stop-opacity:0.7"/>
					<stop  offset="0.7923" style="stop-color:#7D827C"/>
				</linearGradient>
				<path class="st85" d="M185.8,450.5l9.6-25h3.6l10.3,25h-3.8l-2.9-7.6h-10.5l-2.8,7.6H185.8z M193,440.2h8.5l-2.6-6.9
					c-0.8-2.1-1.4-3.8-1.8-5.2c-0.3,1.6-0.8,3.2-1.4,4.8L193,440.2z"/>
				
					<linearGradient id="SVGID_26_" gradientUnits="userSpaceOnUse" x1="351.1653" y1="607.1006" x2="138.403" y2="608.4911" gradientTransform="matrix(1 0 0 1 0 -170)">
					<stop  offset="7.020000e-02" style="stop-color:#DADADA;stop-opacity:0.7"/>
					<stop  offset="0.7923" style="stop-color:#7D827C"/>
				</linearGradient>
				<path class="st86" d="M211.9,450.5v-25h9.4c1.7,0,2.9,0.1,3.8,0.2c1.2,0.2,2.3,0.6,3.1,1.2s1.5,1.4,2,2.4s0.8,2.2,0.8,3.4
					c0,2.1-0.7,3.9-2,5.4c-1.4,1.5-3.8,2.2-7.4,2.2h-6.4v10.2L211.9,450.5L211.9,450.5z M215.2,437.3h6.5c2.1,0,3.7-0.4,4.6-1.2
					c0.9-0.8,1.4-1.9,1.4-3.4c0-1-0.3-2-0.8-2.7c-0.5-0.8-1.2-1.2-2.1-1.5c-0.6-0.1-1.6-0.2-3.1-0.2h-6.4L215.2,437.3L215.2,437.3z"
					/>
				
					<linearGradient id="SVGID_27_" gradientUnits="userSpaceOnUse" x1="351.1665" y1="607.3012" x2="138.4042" y2="608.6918" gradientTransform="matrix(1 0 0 1 0 -170)">
					<stop  offset="7.020000e-02" style="stop-color:#DADADA;stop-opacity:0.7"/>
					<stop  offset="0.7923" style="stop-color:#7D827C"/>
				</linearGradient>
				<path class="st87" d="M234.1,442.4l3.1-0.3c0.1,1.3,0.5,2.3,1,3.1s1.4,1.5,2.5,2s2.4,0.7,3.9,0.7c1.3,0,2.4-0.2,3.4-0.6
					s1.7-0.9,2.2-1.5s0.7-1.4,0.7-2.1c0-0.8-0.2-1.5-0.7-2.1s-1.2-1.1-2.3-1.5c-0.7-0.3-2.2-0.7-4.5-1.2s-3.9-1.1-4.8-1.6
					c-1.2-0.6-2.1-1.4-2.7-2.3c-0.6-0.9-0.9-2-0.9-3.1c0-1.3,0.4-2.5,1.1-3.5c0.7-1.1,1.8-1.9,3.1-2.5c1.4-0.6,2.9-0.9,4.6-0.9
					c1.9,0,3.5,0.3,4.9,0.9s2.5,1.5,3.3,2.6c0.8,1.2,1.2,2.5,1.2,4l-3.2,0.2c-0.2-1.6-0.8-2.8-1.7-3.6c-1-0.8-2.4-1.2-4.4-1.2
					s-3.5,0.4-4.4,1.1s-1.4,1.6-1.4,2.7c0,0.9,0.3,1.6,1,2.2c0.6,0.6,2.3,1.2,5,1.8c2.7,0.6,4.5,1.1,5.6,1.6
					c1.5,0.7,2.5,1.5,3.2,2.5s1,2.2,1,3.6c0,1.3-0.4,2.6-1.1,3.8c-0.8,1.2-1.9,2.1-3.3,2.8c-1.4,0.7-3,1-4.8,1c-2.3,0-4.2-0.3-5.7-1
					s-2.7-1.6-3.6-3C234.6,445.6,234.1,444.1,234.1,442.4z"/>
				
					<linearGradient id="SVGID_28_" gradientUnits="userSpaceOnUse" x1="351.1676" y1="607.459" x2="138.4053" y2="608.8497" gradientTransform="matrix(1 0 0 1 0 -170)">
					<stop  offset="7.020000e-02" style="stop-color:#DADADA;stop-opacity:0.7"/>
					<stop  offset="0.7923" style="stop-color:#7D827C"/>
				</linearGradient>
				<path class="st88" d="M258.5,450.5v-25h3.4l13.2,19.7v-19.7h3.2v25h-3.4l-13.2-19.7v19.7H258.5z"/>
				
					<linearGradient id="SVGID_29_" gradientUnits="userSpaceOnUse" x1="351.1688" y1="607.6502" x2="138.4065" y2="609.0408" gradientTransform="matrix(1 0 0 1 0 -170)">
					<stop  offset="7.020000e-02" style="stop-color:#DADADA;stop-opacity:0.7"/>
					<stop  offset="0.7923" style="stop-color:#7D827C"/>
				</linearGradient>
				<path class="st89" d="M281.1,450.5l9.6-25h3.6l10.3,25h-3.8l-2.9-7.6h-10.5l-2.8,7.6H281.1z M288.3,440.2h8.5l-2.6-6.9
					c-0.8-2.1-1.4-3.8-1.8-5.2c-0.3,1.6-0.8,3.2-1.4,4.8L288.3,440.2z"/>
				
					<linearGradient id="SVGID_30_" gradientUnits="userSpaceOnUse" x1="351.17" y1="607.8351" x2="138.4077" y2="609.2258" gradientTransform="matrix(1 0 0 1 0 -170)">
					<stop  offset="7.020000e-02" style="stop-color:#DADADA;stop-opacity:0.7"/>
					<stop  offset="0.7923" style="stop-color:#7D827C"/>
				</linearGradient>
				<path class="st90" d="M307.2,450.5v-25h11.1c2.2,0,3.9,0.2,5.1,0.7s2.1,1.3,2.8,2.4c0.7,1.1,1,2.4,1,3.8c0,1.8-0.6,3.3-1.7,4.5
					s-2.9,2-5.3,2.3c0.9,0.4,1.5,0.8,2,1.3c1,0.9,1.9,2,2.8,3.3l4.4,6.8h-4.2l-3.3-5.2c-1-1.5-1.8-2.6-2.4-3.5
					c-0.6-0.8-1.2-1.4-1.7-1.7c-0.5-0.3-1-0.5-1.5-0.7c-0.4-0.1-1-0.1-1.9-0.1h-3.9v11.1L307.2,450.5L307.2,450.5z M310.6,436.5h7.1
					c1.5,0,2.7-0.2,3.5-0.5c0.9-0.3,1.5-0.8,2-1.5c0.4-0.7,0.7-1.4,0.7-2.3c0-1.2-0.4-2.2-1.3-2.9c-0.9-0.8-2.2-1.1-4.1-1.1h-7.9
					L310.6,436.5L310.6,436.5z"/>
				
					<linearGradient id="SVGID_31_" gradientUnits="userSpaceOnUse" x1="351.1777" y1="607.989" x2="138.4154" y2="609.3796" gradientTransform="matrix(1 0 0 1 0 -170)">
					<stop  offset="7.020000e-02" style="stop-color:#DADADA;stop-opacity:0.7"/>
					<stop  offset="0.7923" style="stop-color:#7D827C"/>
				</linearGradient>
				<path class="st91" d="M332.5,450.5v-25h18.1v3h-14.8v7.7h13.9v2.9h-13.9v8.5h15.4v3L332.5,450.5L332.5,450.5z"/>
			</g>
			<g>
				
					<linearGradient id="SVGID_32_" gradientUnits="userSpaceOnUse" x1="351.1625" y1="606.6784" x2="138.761" y2="608.0666" gradientTransform="matrix(1 0 0 1 0 -170)">
					<stop  offset="7.020000e-02" style="stop-color:#E9EDE6;stop-opacity:0"/>
					<stop  offset="1" style="stop-color:#7D827C"/>
				</linearGradient>
				<path style="fill:none;stroke:url(#SVGID_32_);stroke-width:0.25;stroke-miterlimit:10;" d="M138.8,442.4l3.1-0.3
					c0.1,1.3,0.5,2.3,1,3.1s1.4,1.5,2.5,2s2.4,0.7,3.9,0.7c1.3,0,2.4-0.2,3.4-0.6s1.7-0.9,2.2-1.5s0.7-1.4,0.7-2.1
					c0-0.8-0.2-1.5-0.7-2.1s-1.2-1.1-2.3-1.5c-0.7-0.3-2.2-0.7-4.5-1.2s-3.9-1.1-4.8-1.6c-1.2-0.6-2.1-1.4-2.7-2.3
					c-0.6-0.9-0.9-2-0.9-3.1c0-1.3,0.4-2.5,1.1-3.5c0.7-1.1,1.8-1.9,3.1-2.5c1.4-0.6,2.9-0.9,4.6-0.9c1.9,0,3.5,0.3,4.9,0.9
					s2.5,1.5,3.3,2.6c0.8,1.2,1.2,2.5,1.2,4l-3.2,0.2c-0.2-1.6-0.8-2.8-1.7-3.6c-1-0.8-2.4-1.2-4.4-1.2s-3.5,0.4-4.4,1.1
					s-1.4,1.6-1.4,2.7c0,0.9,0.3,1.6,1,2.2c0.6,0.6,2.3,1.2,5,1.8c2.7,0.6,4.5,1.1,5.6,1.6c1.5,0.7,2.5,1.5,3.2,2.5s1,2.2,1,3.6
					c0,1.3-0.4,2.6-1.1,3.8c-0.8,1.2-1.9,2.1-3.3,2.8c-1.4,0.7-3,1-4.8,1c-2.3,0-4.2-0.3-5.7-1s-2.7-1.6-3.6-3
					C139.3,445.6,138.8,444.1,138.8,442.4z"/>
				
					<linearGradient id="SVGID_33_" gradientUnits="userSpaceOnUse" x1="351.1635" y1="606.8362" x2="138.762" y2="608.2244" gradientTransform="matrix(1 0 0 1 0 -170)">
					<stop  offset="7.020000e-02" style="stop-color:#E9EDE6;stop-opacity:0"/>
					<stop  offset="1" style="stop-color:#7D827C"/>
				</linearGradient>
				<path class="st93" d="M163.2,450.5v-25h3.4l13.2,19.7v-19.7h3.2v25h-3.4l-13.2-19.7v19.7H163.2z"/>
				
					<linearGradient id="SVGID_34_" gradientUnits="userSpaceOnUse" x1="351.1648" y1="607.0277" x2="138.7633" y2="608.4159" gradientTransform="matrix(1 0 0 1 0 -170)">
					<stop  offset="7.020000e-02" style="stop-color:#E9EDE6;stop-opacity:0"/>
					<stop  offset="1" style="stop-color:#7D827C"/>
				</linearGradient>
				<path class="st94" d="M185.8,450.5l9.6-25h3.6l10.3,25h-3.8l-2.9-7.6h-10.5l-2.8,7.6H185.8z M193,440.2h8.5l-2.6-6.9
					c-0.8-2.1-1.4-3.8-1.8-5.2c-0.3,1.6-0.8,3.2-1.4,4.8L193,440.2z"/>
				
					<linearGradient id="SVGID_35_" gradientUnits="userSpaceOnUse" x1="351.1653" y1="607.1006" x2="138.7638" y2="608.4888" gradientTransform="matrix(1 0 0 1 0 -170)">
					<stop  offset="7.020000e-02" style="stop-color:#E9EDE6;stop-opacity:0"/>
					<stop  offset="1" style="stop-color:#7D827C"/>
				</linearGradient>
				<path class="st95" d="M211.9,450.5v-25h9.4c1.7,0,2.9,0.1,3.8,0.2c1.2,0.2,2.3,0.6,3.1,1.2s1.5,1.4,2,2.4s0.8,2.2,0.8,3.4
					c0,2.1-0.7,3.9-2,5.4c-1.4,1.5-3.8,2.2-7.4,2.2h-6.4v10.2L211.9,450.5L211.9,450.5z M215.2,437.3h6.5c2.1,0,3.7-0.4,4.6-1.2
					c0.9-0.8,1.4-1.9,1.4-3.4c0-1-0.3-2-0.8-2.7c-0.5-0.8-1.2-1.2-2.1-1.5c-0.6-0.1-1.6-0.2-3.1-0.2h-6.4L215.2,437.3L215.2,437.3z"
					/>
				
					<linearGradient id="SVGID_36_" gradientUnits="userSpaceOnUse" x1="351.1665" y1="607.3012" x2="138.765" y2="608.6895" gradientTransform="matrix(1 0 0 1 0 -170)">
					<stop  offset="7.020000e-02" style="stop-color:#E9EDE6;stop-opacity:0"/>
					<stop  offset="1" style="stop-color:#7D827C"/>
				</linearGradient>
				<path class="st96" d="M234.1,442.4l3.1-0.3c0.1,1.3,0.5,2.3,1,3.1s1.4,1.5,2.5,2s2.4,0.7,3.9,0.7c1.3,0,2.4-0.2,3.4-0.6
					s1.7-0.9,2.2-1.5s0.7-1.4,0.7-2.1c0-0.8-0.2-1.5-0.7-2.1s-1.2-1.1-2.3-1.5c-0.7-0.3-2.2-0.7-4.5-1.2s-3.9-1.1-4.8-1.6
					c-1.2-0.6-2.1-1.4-2.7-2.3c-0.6-0.9-0.9-2-0.9-3.1c0-1.3,0.4-2.5,1.1-3.5c0.7-1.1,1.8-1.9,3.1-2.5c1.4-0.6,2.9-0.9,4.6-0.9
					c1.9,0,3.5,0.3,4.9,0.9s2.5,1.5,3.3,2.6c0.8,1.2,1.2,2.5,1.2,4l-3.2,0.2c-0.2-1.6-0.8-2.8-1.7-3.6c-1-0.8-2.4-1.2-4.4-1.2
					s-3.5,0.4-4.4,1.1s-1.4,1.6-1.4,2.7c0,0.9,0.3,1.6,1,2.2c0.6,0.6,2.3,1.2,5,1.8c2.7,0.6,4.5,1.1,5.6,1.6
					c1.5,0.7,2.5,1.5,3.2,2.5s1,2.2,1,3.6c0,1.3-0.4,2.6-1.1,3.8c-0.8,1.2-1.9,2.1-3.3,2.8c-1.4,0.7-3,1-4.8,1c-2.3,0-4.2-0.3-5.7-1
					s-2.7-1.6-3.6-3C234.6,445.6,234.1,444.1,234.1,442.4z"/>
				
					<linearGradient id="SVGID_37_" gradientUnits="userSpaceOnUse" x1="351.1676" y1="607.459" x2="138.7661" y2="608.8472" gradientTransform="matrix(1 0 0 1 0 -170)">
					<stop  offset="7.020000e-02" style="stop-color:#E9EDE6;stop-opacity:0"/>
					<stop  offset="1" style="stop-color:#7D827C"/>
				</linearGradient>
				<path class="st97" d="M258.5,450.5v-25h3.4l13.2,19.7v-19.7h3.2v25h-3.4l-13.2-19.7v19.7H258.5z"/>
				
					<linearGradient id="SVGID_38_" gradientUnits="userSpaceOnUse" x1="351.1688" y1="607.6506" x2="138.7673" y2="609.0388" gradientTransform="matrix(1 0 0 1 0 -170)">
					<stop  offset="7.020000e-02" style="stop-color:#E9EDE6;stop-opacity:0"/>
					<stop  offset="1" style="stop-color:#7D827C"/>
				</linearGradient>
				<path class="st98" d="M281.1,450.5l9.6-25h3.6l10.3,25h-3.8l-2.9-7.6h-10.5l-2.8,7.6H281.1z M288.3,440.2h8.5l-2.6-6.9
					c-0.8-2.1-1.4-3.8-1.8-5.2c-0.3,1.6-0.8,3.2-1.4,4.8L288.3,440.2z"/>
				
					<linearGradient id="SVGID_39_" gradientUnits="userSpaceOnUse" x1="351.17" y1="607.8355" x2="138.7685" y2="609.2237" gradientTransform="matrix(1 0 0 1 0 -170)">
					<stop  offset="7.020000e-02" style="stop-color:#E9EDE6;stop-opacity:0"/>
					<stop  offset="1" style="stop-color:#7D827C"/>
				</linearGradient>
				<path class="st99" d="M307.2,450.5v-25h11.1c2.2,0,3.9,0.2,5.1,0.7s2.1,1.3,2.8,2.4c0.7,1.1,1,2.4,1,3.8c0,1.8-0.6,3.3-1.7,4.5
					s-2.9,2-5.3,2.3c0.9,0.4,1.5,0.8,2,1.3c1,0.9,1.9,2,2.8,3.3l4.4,6.8h-4.2l-3.3-5.2c-1-1.5-1.8-2.6-2.4-3.5
					c-0.6-0.8-1.2-1.4-1.7-1.7c-0.5-0.3-1-0.5-1.5-0.7c-0.4-0.1-1-0.1-1.9-0.1h-3.9v11.1L307.2,450.5L307.2,450.5z M310.6,436.5h7.1
					c1.5,0,2.7-0.2,3.5-0.5c0.9-0.3,1.5-0.8,2-1.5c0.4-0.7,0.7-1.4,0.7-2.3c0-1.2-0.4-2.2-1.3-2.9c-0.9-0.8-2.2-1.1-4.1-1.1h-7.9
					L310.6,436.5L310.6,436.5z"/>
				
					<linearGradient id="SVGID_40_" gradientUnits="userSpaceOnUse" x1="351.1711" y1="607.9894" x2="138.7696" y2="609.3776" gradientTransform="matrix(1 0 0 1 0 -170)">
					<stop  offset="7.020000e-02" style="stop-color:#E9EDE6;stop-opacity:0"/>
					<stop  offset="1" style="stop-color:#7D827C"/>
				</linearGradient>
				<path class="st100" d="M332.5,450.5v-25h18.1v3h-14.8v7.7h13.9v2.9h-13.9v8.5h15.4v3L332.5,450.5L332.5,450.5z"/>
			</g>
		</g>
	</g>
	<rect x="139.6" y="425.4" class="st1" width="224.9" height="33.9"/>
	<text transform="matrix(1 0 0 1 139.5836 450.4807)" class="st65 st82 st83">SNAPSNARE</text>
</g>
<g id="Layer_32">
	<g>
		<g>
			
				<image style="overflow:visible;enable-background:new    ;" width="342" height="333" xlink:href="9DC2EA23.png"  transform="matrix(0.2365 0 0 0.2365 565.92 160.6642)">
			</image>
		</g>
	</g>
</g>
<g id="Layer_3" class="st32">
	<path id="XMLID_22_" class="st102" d="M214.2,310.4c54.1,0.6,108.2,1.1,162.3,1.7"/>
	<ellipse id="XMLID_21_" class="st103" cx="356.3" cy="313.7" rx="0.8" ry="14.3"/>
	<ellipse id="XMLID_20_" class="st103" cx="349" cy="314.4" rx="1.2" ry="20"/>
	<ellipse id="XMLID_19_" class="st103" cx="342" cy="314.5" rx="0.8" ry="13.5"/>
	<ellipse id="XMLID_18_" class="st103" cx="336.8" cy="314.5" rx="0.7" ry="13.5"/>
	<ellipse id="XMLID_17_" class="st103" cx="327.7" cy="314.4" rx="0.8" ry="20"/>
</g>
</svg>
