<svg xmlns="http://www.w3.org/2000/svg" xmlns:xlink="http://www.w3.org/1999/xlink" viewBox="0 0 356.1 57.7"><defs><style>.cls-1{fill-rule:evenodd;fill:url(#linear-gradient);}.cls-2,.cls-3{fill:none;}.cls-2{stroke:#fff;stroke-linecap:round;stroke-miterlimit:10;stroke-width:5px;}.cls-4{isolation:isolate;font-size:35px;fill:#fff;font-family:Arial-BoldMT, Arial;font-weight:700;}</style><linearGradient id="linear-gradient" y1="28.85" x2="356.1" y2="28.85" gradientUnits="userSpaceOnUse"><stop offset="0" stop-color="#0c9d39"/><stop offset="1" stop-color="#298b43"/></linearGradient></defs><g id="Layer_2" data-name="Layer 2"><g id="Layer_1-2" data-name="Layer 1"><path id="rect12" class="cls-1" d="M10,0H346.1a9.82,9.82,0,0,1,10,9.6V48.1a9.82,9.82,0,0,1-10,9.6H10A9.82,9.82,0,0,1,0,48.1V9.6C-.1,4.3,4.4,0,10,0Z"/><path class="cls-2" d="M98.5,34H87.8a4.91,4.91,0,0,1-4.5-3.2c-.8-2.4-2-8.2-5.6-7.3a4.67,4.67,0,0,0-2.6,2.2c-1.9,3.6-1.4,8.1-3.6,11.7A2.89,2.89,0,0,1,69.1,39a3,3,0,0,1-2.6-1.7,11.17,11.17,0,0,1-.9-4.4c-.3-2.2-.5-4.4-.7-6.6q-.6-6.6-1.5-13.2c-.3-2-.4-5-2.5-6.2A3.61,3.61,0,0,0,56.6,8a8.61,8.61,0,0,0-1.8,4.4A78.39,78.39,0,0,0,53.7,22c-.3,2.8-.5,5.6-.8,8.4-.3,3.3-.5,6.5-.9,9.8-.3,2.3-.3,4.9-1.7,6.9a3.09,3.09,0,0,1-2.2,1.5A3,3,0,0,1,45.4,47c-1.2-2-1.2-4.6-1.4-6.9-.3-2.5-.5-5-.9-7.4-.3-2-.7-4-1.1-6a9.62,9.62,0,0,0-2.2-4.8,2.93,2.93,0,0,0-3-.9,3.48,3.48,0,0,0-2,2.4,47.32,47.32,0,0,0-1.5,7.3c-.4,2.1-.7,4.3-1.3,6.4s-1.5,5.6-4.3,5.4a4.08,4.08,0,0,1-3-2.4c-1.3-2.4-1.2-5.4-2.8-7.7-1.6-2.5-4.9-2.6-4.9-2.6H6.9"/><rect class="cls-3" x="107.7" y="16.7" width="224.9" height="33.9"/><text class="cls-4" transform="translate(107.72 41.78)">SNAPSNARE</text></g></g></svg>