<svg xmlns="http://www.w3.org/2000/svg" xmlns:xlink="http://www.w3.org/1999/xlink" viewBox="0 0 123.32 118.4"><defs><style>.cls-1{fill:url(#linear-gradient);}.cls-2{fill:none;stroke:#fff;stroke-miterlimit:10;stroke-width:6px;}</style><linearGradient id="linear-gradient" x1="12.31" y1="183.2" x2="112.94" y2="276.26" gradientTransform="translate(0 -170)" gradientUnits="userSpaceOnUse"><stop offset="0.2" stop-color="#43ab34"/><stop offset="0.47" stop-color="#0c9d39"/><stop offset="0.92" stop-color="#0f7834"/></linearGradient></defs><g id="Layer_2" data-name="Layer 2"><g id="Layer_1-2" data-name="Layer 1"><path class="cls-1" d="M105.82,118.4H19.42a16,16,0,0,1-16-16V16a16,16,0,0,1,16-16H104a17.84,17.84,0,0,1,17.8,17.8v84.6A16,16,0,0,1,105.82,118.4Z"/><path class="cls-2" d="M121.82,66.05H108a6.51,6.51,0,0,1-5.92-4.14c-1-3.11-2.64-10.73-7.25-9.6a5.47,5.47,0,0,0-3.38,2.92c-2.54,4.7-1.79,10.53-4.61,15.24a4.11,4.11,0,0,1-3.11,2.16,3.69,3.69,0,0,1-3.29-2.16c-.94-1.7-.94-3.86-1.22-5.84-.29-2.82-.66-5.73-.95-8.56-.56-5.74-1.12-11.47-2-17.12-.38-2.63-.57-6.58-3.2-8-1.88-1-4.23-.18-5.65,1.42A12.48,12.48,0,0,0,65,38.1c-.85,4.14-.94,8.28-1.32,12.52-.28,3.67-.66,7.24-1,10.91-.38,4.23-.66,8.56-1.23,12.79-.37,3-.47,6.4-2.16,9a4.17,4.17,0,0,1-2.82,1.88,4.07,4.07,0,0,1-3.58-2.17c-1.5-2.63-1.5-6-1.88-8.93-.38-3.2-.66-6.49-1.13-9.69-.37-2.64-.84-5.18-1.41-7.72-.47-2.26-1.13-4.61-2.82-6.3a3.91,3.91,0,0,0-3.95-1.13,4.46,4.46,0,0,0-2.54,3.1,84.23,84.23,0,0,0-2,9.6,82.65,82.65,0,0,1-1.69,8.37c-.75,2.73-2,7.34-5.55,7.06-1.79-.09-3.11-1.6-3.86-3.11-1.69-3.1-1.6-7-3.67-10.06S16,60.87,16,60.87H2.72"/></g></g></svg>